<?xml version="1.0" encoding="UTF-8" standalone="no"?><svg xmlns="http://www.w3.org/2000/svg" xmlns:xlink="http://www.w3.org/1999/xlink" contentScriptType="application/ecmascript" contentStyleType="text/css" height="720px" preserveAspectRatio="none" style="width:767px;height:720px;background:#FFFFFF;" version="1.1" viewBox="0 0 767 720" width="767px" zoomAndPan="magnify"><defs><filter height="300%" id="f10oo4zbghx1cl" width="300%" x="-1" y="-1"><feGaussianBlur result="blurOut" stdDeviation="2.0"/><feColorMatrix in="blurOut" result="blurOut2" type="matrix" values="0 0 0 0 0 0 0 0 0 0 0 0 0 0 0 0 0 0 .4 0"/><feOffset dx="4.0" dy="4.0" in="blurOut2" result="blurOut3"/><feBlend in="SourceGraphic" in2="blurOut3" mode="normal"/></filter></defs><g><!--MD5=[5d4cd377749310b66bf14896f5cd8d9b]
cluster model--><polygon fill="#FFFFFF" filter="url(#f10oo4zbghx1cl)" points="150,73,199,73,206,96.6094,729,96.6094,729,215,150,215,150,73" style="stroke:#000000;stroke-width:1.5;"/><line style="stroke:#000000;stroke-width:1.5;" x1="150" x2="206" y1="96.6094" y2="96.6094"/><text fill="#000000" font-family="sans-serif" font-size="14" font-weight="bold" lengthAdjust="spacing" textLength="43" x="154" y="89.5332">model</text><!--MD5=[c27d767109b3913d4718b358a17ad24a]
cluster internal--><polygon fill="#FFFFFF" filter="url(#f10oo4zbghx1cl)" points="127,239,187,239,194,262.6094,579,262.6094,579,587,127,587,127,239" style="stroke:#000000;stroke-width:1.5;"/><line style="stroke:#000000;stroke-width:1.5;" x1="127" x2="194" y1="262.6094" y2="262.6094"/><text fill="#000000" font-family="sans-serif" font-size="14" font-weight="bold" lengthAdjust="spacing" textLength="54" x="131" y="255.5332">internal</text><!--MD5=[64e2e010ba86d7988e5cd73bd64f61f9]
cluster ui--><polygon fill="#FFFFFF" filter="url(#f10oo4zbghx1cl)" points="273,290,292,290,299,313.6094,411,313.6094,411,404,273,404,273,290" style="stroke:#000000;stroke-width:1.5;"/><line style="stroke:#000000;stroke-width:1.5;" x1="273" x2="299" y1="313.6094" y2="313.6094"/><text fill="#000000" font-family="sans-serif" font-size="14" font-weight="bold" lengthAdjust="spacing" textLength="13" x="277" y="306.5332">ui</text><!--MD5=[77140a42179fe8241cde5d77dd05aadc]
cluster config--><polygon fill="#FFFFFF" filter="url(#f10oo4zbghx1cl)" points="151,283,201,283,208,306.6094,249,306.6094,249,411,151,411,151,283" style="stroke:#000000;stroke-width:1.5;"/><line style="stroke:#000000;stroke-width:1.5;" x1="151" x2="208" y1="306.6094" y2="306.6094"/><text fill="#000000" font-family="sans-serif" font-size="14" font-weight="bold" lengthAdjust="spacing" textLength="44" x="155" y="299.5332">config</text><!--MD5=[05c08c64fd7074a05f164777cc39d98f]
cluster ggraph--><polygon fill="#FFFFFF" filter="url(#f10oo4zbghx1cl)" points="435,283,491,283,498,306.6094,555,306.6094,555,411,435,411,435,283" style="stroke:#000000;stroke-width:1.5;"/><line style="stroke:#000000;stroke-width:1.5;" x1="435" x2="498" y1="306.6094" y2="306.6094"/><text fill="#000000" font-family="sans-serif" font-size="14" font-weight="bold" lengthAdjust="spacing" textLength="50" x="439" y="299.5332">ggraph</text><!--MD5=[10ad930ee69173cd9d3aa754f8a8a48b]
cluster manager--><polygon fill="#FFFFFF" filter="url(#f10oo4zbghx1cl)" points="439,435,506,435,513,458.6094,553,458.6094,553,563,439,563,439,435" style="stroke:#000000;stroke-width:1.5;"/><line style="stroke:#000000;stroke-width:1.5;" x1="439" x2="513" y1="458.6094" y2="458.6094"/><text fill="#000000" font-family="sans-serif" font-size="14" font-weight="bold" lengthAdjust="spacing" textLength="61" x="443" y="451.5332">manager</text><!--MD5=[d5ac3844f66b12d9e08170e47495e096]
cluster app--><polygon fill="#FFFFFF" filter="url(#f10oo4zbghx1cl)" points="603,435,635,435,642,458.6094,739,458.6094,739,713,603,713,603,435" style="stroke:#000000;stroke-width:1.5;"/><line style="stroke:#000000;stroke-width:1.5;" x1="603" x2="642" y1="458.6094" y2="458.6094"/><text fill="#000000" font-family="sans-serif" font-size="14" font-weight="bold" lengthAdjust="spacing" textLength="26" x="607" y="451.5332">app</text><!--MD5=[b27c5c9af3cea12247b1c4c8d3c78770]
cluster GUI--><polygon fill="#FFFFFF" filter="url(#f10oo4zbghx1cl)" points="16,94,47,94,54,117.6094,126,117.6094,126,194,16,194,16,94" style="stroke:#000000;stroke-width:1.5;"/><line style="stroke:#000000;stroke-width:1.5;" x1="16" x2="54" y1="117.6094" y2="117.6094"/><text fill="#000000" font-family="sans-serif" font-size="14" font-weight="bold" lengthAdjust="spacing" textLength="25" x="20" y="110.5332">GUI</text><!--MD5=[d2144b9984ea0062b686c85f3b2116dc]
class IUI--><rect codeLine="6" fill="#FEFECE" filter="url(#f10oo4zbghx1cl)" height="61.8359" id="IUI" style="stroke:#A80036;stroke-width:1.5;" width="116" x="269" y="123"/><ellipse cx="316.25" cy="139" fill="#B4A7E5" rx="11" ry="11" style="stroke:#A80036;stroke-width:1.0;"/><path d="M317.2031,135.6406 L317.2031,142.2969 L318.9219,142.2969 Q319.5313,142.2969 319.7969,142.5313 Q320.0625,142.7656 320.0625,143.1563 Q320.0625,143.5313 319.7969,143.7656 Q319.5313,144 318.9219,144 L313.7813,144 Q313.1719,144 312.9063,143.7656 Q312.6406,143.5313 312.6406,143.1406 Q312.6406,142.7656 312.9063,142.5313 Q313.1719,142.2969 313.7813,142.2969 L315.5,142.2969 L315.5,135.6406 L313.7813,135.6406 Q313.1719,135.6406 312.9063,135.4063 Q312.6406,135.1719 312.6406,134.7813 Q312.6406,134.4063 312.9063,134.1719 Q313.1719,133.9375 313.7813,133.9375 L318.9219,133.9375 Q319.5313,133.9375 319.7969,134.1719 Q320.0625,134.4063 320.0625,134.7813 Q320.0625,135.1719 319.7969,135.4063 Q319.5313,135.6406 318.9219,135.6406 L317.2031,135.6406 Z " fill="#000000"/><text fill="#000000" font-family="sans-serif" font-size="12" font-style="italic" lengthAdjust="spacing" textLength="13" x="336.75" y="143.9102">UI</text><line style="stroke:#A80036;stroke-width:1.5;" x1="270" x2="384" y1="155" y2="155"/><line style="stroke:#A80036;stroke-width:1.5;" x1="270" x2="384" y1="163" y2="163"/><text fill="#000000" font-family="sans-serif" font-size="11" font-style="italic" lengthAdjust="spacing" textLength="104" x="275" y="178.4189">+MakeMainWindow()</text><!--MD5=[f4a289e24d2a9d194ff345de873cc0fe]
class IGGraph--><rect codeLine="10" fill="#FEFECE" filter="url(#f10oo4zbghx1cl)" height="89.5078" id="IGGraph" style="stroke:#A80036;stroke-width:1.5;" width="178" x="420" y="109"/><ellipse cx="483.25" cy="125" fill="#B4A7E5" rx="11" ry="11" style="stroke:#A80036;stroke-width:1.0;"/><path d="M484.2031,121.6406 L484.2031,128.2969 L485.9219,128.2969 Q486.5313,128.2969 486.7969,128.5313 Q487.0625,128.7656 487.0625,129.1563 Q487.0625,129.5313 486.7969,129.7656 Q486.5313,130 485.9219,130 L480.7813,130 Q480.1719,130 479.9063,129.7656 Q479.6406,129.5313 479.6406,129.1406 Q479.6406,128.7656 479.9063,128.5313 Q480.1719,128.2969 480.7813,128.2969 L482.5,128.2969 L482.5,121.6406 L480.7813,121.6406 Q480.1719,121.6406 479.9063,121.4063 Q479.6406,121.1719 479.6406,120.7813 Q479.6406,120.4063 479.9063,120.1719 Q480.1719,119.9375 480.7813,119.9375 L485.9219,119.9375 Q486.5313,119.9375 486.7969,120.1719 Q487.0625,120.4063 487.0625,120.7813 Q487.0625,121.1719 486.7969,121.4063 Q486.5313,121.6406 485.9219,121.6406 L484.2031,121.6406 Z " fill="#000000"/><text fill="#000000" font-family="sans-serif" font-size="12" font-style="italic" lengthAdjust="spacing" textLength="43" x="503.75" y="129.9102">GGraph</text><line style="stroke:#A80036;stroke-width:1.5;" x1="421" x2="597" y1="141" y2="141"/><line style="stroke:#A80036;stroke-width:1.5;" x1="421" x2="597" y1="149" y2="149"/><text fill="#000000" font-family="sans-serif" font-size="11" font-style="italic" lengthAdjust="spacing" textLength="158" x="426" y="164.4189">+SetSimpleAdjMatrix(AdjMatrix)</text><text fill="#000000" font-family="sans-serif" font-size="11" font-style="italic" lengthAdjust="spacing" textLength="166" x="426" y="178.2549">+SetDirectedAdjMatrix(AdjMatrix)</text><text fill="#000000" font-family="sans-serif" font-size="11" font-style="italic" lengthAdjust="spacing" textLength="40" x="426" y="192.0908">+Show()</text><!--MD5=[5c0eb67a6a4b471579a32057e208c544]
class IConfig--><rect codeLine="16" fill="#FEFECE" filter="url(#f10oo4zbghx1cl)" height="75.6719" id="IConfig" style="stroke:#A80036;stroke-width:1.5;" width="68" x="166" y="116"/><ellipse cx="181" cy="132" fill="#B4A7E5" rx="11" ry="11" style="stroke:#A80036;stroke-width:1.0;"/><path d="M181.9531,128.6406 L181.9531,135.2969 L183.6719,135.2969 Q184.2813,135.2969 184.5469,135.5313 Q184.8125,135.7656 184.8125,136.1563 Q184.8125,136.5313 184.5469,136.7656 Q184.2813,137 183.6719,137 L178.5313,137 Q177.9219,137 177.6563,136.7656 Q177.3906,136.5313 177.3906,136.1406 Q177.3906,135.7656 177.6563,135.5313 Q177.9219,135.2969 178.5313,135.2969 L180.25,135.2969 L180.25,128.6406 L178.5313,128.6406 Q177.9219,128.6406 177.6563,128.4063 Q177.3906,128.1719 177.3906,127.7813 Q177.3906,127.4063 177.6563,127.1719 Q177.9219,126.9375 178.5313,126.9375 L183.6719,126.9375 Q184.2813,126.9375 184.5469,127.1719 Q184.8125,127.4063 184.8125,127.7813 Q184.8125,128.1719 184.5469,128.4063 Q184.2813,128.6406 183.6719,128.6406 L181.9531,128.6406 Z " fill="#000000"/><text fill="#000000" font-family="sans-serif" font-size="12" font-style="italic" lengthAdjust="spacing" textLength="36" x="195" y="136.9102">Config</text><line style="stroke:#A80036;stroke-width:1.5;" x1="167" x2="233" y1="148" y2="148"/><line style="stroke:#A80036;stroke-width:1.5;" x1="167" x2="233" y1="156" y2="156"/><text fill="#000000" font-family="sans-serif" font-size="11" font-style="italic" lengthAdjust="spacing" textLength="38" x="172" y="171.4189">+Load()</text><text fill="#000000" font-family="sans-serif" font-size="11" font-style="italic" lengthAdjust="spacing" textLength="38" x="172" y="185.2549">+Save()</text><!--MD5=[08857f5f734705466f35c6a4db27ff27]
class IManager--><rect codeLine="21" fill="#FEFECE" filter="url(#f10oo4zbghx1cl)" height="75.6719" id="IManager" style="stroke:#A80036;stroke-width:1.5;" width="80" x="633" y="116"/><ellipse cx="648" cy="132" fill="#B4A7E5" rx="11" ry="11" style="stroke:#A80036;stroke-width:1.0;"/><path d="M648.9531,128.6406 L648.9531,135.2969 L650.6719,135.2969 Q651.2813,135.2969 651.5469,135.5313 Q651.8125,135.7656 651.8125,136.1563 Q651.8125,136.5313 651.5469,136.7656 Q651.2813,137 650.6719,137 L645.5313,137 Q644.9219,137 644.6563,136.7656 Q644.3906,136.5313 644.3906,136.1406 Q644.3906,135.7656 644.6563,135.5313 Q644.9219,135.2969 645.5313,135.2969 L647.25,135.2969 L647.25,128.6406 L645.5313,128.6406 Q644.9219,128.6406 644.6563,128.4063 Q644.3906,128.1719 644.3906,127.7813 Q644.3906,127.4063 644.6563,127.1719 Q644.9219,126.9375 645.5313,126.9375 L650.6719,126.9375 Q651.2813,126.9375 651.5469,127.1719 Q651.8125,127.4063 651.8125,127.7813 Q651.8125,128.1719 651.5469,128.4063 Q651.2813,128.6406 650.6719,128.6406 L648.9531,128.6406 Z " fill="#000000"/><text fill="#000000" font-family="sans-serif" font-size="12" font-style="italic" lengthAdjust="spacing" textLength="48" x="662" y="136.9102">Manager</text><line style="stroke:#A80036;stroke-width:1.5;" x1="634" x2="712" y1="148" y2="148"/><line style="stroke:#A80036;stroke-width:1.5;" x1="634" x2="712" y1="156" y2="156"/><text fill="#000000" font-family="sans-serif" font-size="11" font-style="italic" lengthAdjust="spacing" textLength="29" x="639" y="171.4189">+Init()</text><text fill="#000000" font-family="sans-serif" font-size="11" font-style="italic" lengthAdjust="spacing" textLength="37" x="639" y="185.2549">+Start()</text><!--MD5=[1e40bc20ba079d6abdf88063c378c19c]
class uigraph--><rect codeLine="34" fill="#FEFECE" filter="url(#f10oo4zbghx1cl)" height="61.8359" id="uigraph" style="stroke:#A80036;stroke-width:1.5;" width="105" x="289.5" y="326"/><ellipse cx="318.45" cy="342" fill="#ADD1B2" rx="11" ry="11" style="stroke:#A80036;stroke-width:1.0;"/><path d="M321.2156,337.875 Q321.3719,337.6563 321.5594,337.5469 Q321.7469,337.4375 321.9656,337.4375 Q322.3406,337.4375 322.575,337.7031 Q322.8094,337.9531 322.8094,338.5625 L322.8094,340.0156 Q322.8094,340.625 322.575,340.8906 Q322.3406,341.1563 321.9656,341.1563 Q321.6219,341.1563 321.4188,340.9531 Q321.2156,340.7656 321.1063,340.25 Q321.0594,339.8906 320.8719,339.7031 Q320.5438,339.3281 319.9344,339.1094 Q319.325,338.8906 318.7,338.8906 Q317.9344,338.8906 317.2938,339.2188 Q316.6688,339.5469 316.1688,340.2969 Q315.6844,341.0469 315.6844,342.0781 L315.6844,343.1719 Q315.6844,344.4063 316.575,345.2344 Q317.4656,346.0469 319.0594,346.0469 Q319.9969,346.0469 320.6531,345.7969 Q321.0438,345.6406 321.4656,345.2031 Q321.7313,344.9375 321.8719,344.8594 Q322.0281,344.7813 322.2313,344.7813 Q322.5594,344.7813 322.8094,345.0469 Q323.075,345.2969 323.075,345.6406 Q323.075,345.9844 322.7313,346.3906 Q322.2313,346.9688 321.4344,347.2969 Q320.3563,347.75 319.0594,347.75 Q317.5438,347.75 316.3406,347.125 Q315.3563,346.625 314.6688,345.5625 Q313.9813,344.4844 313.9813,343.2031 L313.9813,342.0469 Q313.9813,340.7188 314.5906,339.5781 Q315.2156,338.4219 316.3094,337.8125 Q317.4031,337.1875 318.6375,337.1875 Q319.3719,337.1875 320.0125,337.3594 Q320.6688,337.5156 321.2156,337.875 Z " fill="#000000"/><text fill="#000000" font-family="sans-serif" font-size="12" lengthAdjust="spacing" textLength="42" x="335.55" y="346.9102">uigraph</text><line style="stroke:#A80036;stroke-width:1.5;" x1="290.5" x2="393.5" y1="358" y2="358"/><text fill="#000000" font-family="sans-serif" font-size="11" lengthAdjust="spacing" textLength="93" x="295.5" y="373.4189">+MakeMainWindow</text><line style="stroke:#A80036;stroke-width:1.5;" x1="290.5" x2="393.5" y1="379.8359" y2="379.8359"/><!--MD5=[9a247f74696882179a492ab5ab0ccb2c]
class config--><rect codeLine="41" fill="#FEFECE" filter="url(#f10oo4zbghx1cl)" height="75.6719" id="config" style="stroke:#A80036;stroke-width:1.5;" width="65" x="167.5" y="319"/><ellipse cx="182.5" cy="335" fill="#ADD1B2" rx="11" ry="11" style="stroke:#A80036;stroke-width:1.0;"/><path d="M185.2656,330.875 Q185.4219,330.6563 185.6094,330.5469 Q185.7969,330.4375 186.0156,330.4375 Q186.3906,330.4375 186.625,330.7031 Q186.8594,330.9531 186.8594,331.5625 L186.8594,333.0156 Q186.8594,333.625 186.625,333.8906 Q186.3906,334.1563 186.0156,334.1563 Q185.6719,334.1563 185.4688,333.9531 Q185.2656,333.7656 185.1563,333.25 Q185.1094,332.8906 184.9219,332.7031 Q184.5938,332.3281 183.9844,332.1094 Q183.375,331.8906 182.75,331.8906 Q181.9844,331.8906 181.3438,332.2188 Q180.7188,332.5469 180.2188,333.2969 Q179.7344,334.0469 179.7344,335.0781 L179.7344,336.1719 Q179.7344,337.4063 180.625,338.2344 Q181.5156,339.0469 183.1094,339.0469 Q184.0469,339.0469 184.7031,338.7969 Q185.0938,338.6406 185.5156,338.2031 Q185.7813,337.9375 185.9219,337.8594 Q186.0781,337.7813 186.2813,337.7813 Q186.6094,337.7813 186.8594,338.0469 Q187.125,338.2969 187.125,338.6406 Q187.125,338.9844 186.7813,339.3906 Q186.2813,339.9688 185.4844,340.2969 Q184.4063,340.75 183.1094,340.75 Q181.5938,340.75 180.3906,340.125 Q179.4063,339.625 178.7188,338.5625 Q178.0313,337.4844 178.0313,336.2031 L178.0313,335.0469 Q178.0313,333.7188 178.6406,332.5781 Q179.2656,331.4219 180.3594,330.8125 Q181.4531,330.1875 182.6875,330.1875 Q183.4219,330.1875 184.0625,330.3594 Q184.7188,330.5156 185.2656,330.875 Z " fill="#000000"/><text fill="#000000" font-family="sans-serif" font-size="12" lengthAdjust="spacing" textLength="33" x="196.5" y="339.9102">config</text><line style="stroke:#A80036;stroke-width:1.5;" x1="168.5" x2="231.5" y1="351" y2="351"/><line style="stroke:#A80036;stroke-width:1.5;" x1="168.5" x2="231.5" y1="359" y2="359"/><text fill="#000000" font-family="sans-serif" font-size="11" lengthAdjust="spacing" textLength="38" x="173.5" y="374.4189">+Load()</text><text fill="#000000" font-family="sans-serif" font-size="11" lengthAdjust="spacing" textLength="39" x="173.5" y="388.2549">+Save()</text><!--MD5=[58cc09d5a5e1d3e80b9bec30e18ca822]
class ggraph--><rect codeLine="49" fill="#FEFECE" filter="url(#f10oo4zbghx1cl)" height="75.6719" id="ggraph" style="stroke:#A80036;stroke-width:1.5;" width="87" x="451.5" y="319"/><ellipse cx="473.7" cy="335" fill="#ADD1B2" rx="11" ry="11" style="stroke:#A80036;stroke-width:1.0;"/><path d="M476.4656,330.875 Q476.6219,330.6563 476.8094,330.5469 Q476.9969,330.4375 477.2156,330.4375 Q477.5906,330.4375 477.825,330.7031 Q478.0594,330.9531 478.0594,331.5625 L478.0594,333.0156 Q478.0594,333.625 477.825,333.8906 Q477.5906,334.1563 477.2156,334.1563 Q476.8719,334.1563 476.6688,333.9531 Q476.4656,333.7656 476.3563,333.25 Q476.3094,332.8906 476.1219,332.7031 Q475.7938,332.3281 475.1844,332.1094 Q474.575,331.8906 473.95,331.8906 Q473.1844,331.8906 472.5438,332.2188 Q471.9188,332.5469 471.4188,333.2969 Q470.9344,334.0469 470.9344,335.0781 L470.9344,336.1719 Q470.9344,337.4063 471.825,338.2344 Q472.7156,339.0469 474.3094,339.0469 Q475.2469,339.0469 475.9031,338.7969 Q476.2938,338.6406 476.7156,338.2031 Q476.9813,337.9375 477.1219,337.8594 Q477.2781,337.7813 477.4813,337.7813 Q477.8094,337.7813 478.0594,338.0469 Q478.325,338.2969 478.325,338.6406 Q478.325,338.9844 477.9813,339.3906 Q477.4813,339.9688 476.6844,340.2969 Q475.6063,340.75 474.3094,340.75 Q472.7938,340.75 471.5906,340.125 Q470.6063,339.625 469.9188,338.5625 Q469.2313,337.4844 469.2313,336.2031 L469.2313,335.0469 Q469.2313,333.7188 469.8406,332.5781 Q470.4656,331.4219 471.5594,330.8125 Q472.6531,330.1875 473.8875,330.1875 Q474.6219,330.1875 475.2625,330.3594 Q475.9188,330.5156 476.4656,330.875 Z " fill="#000000"/><text fill="#000000" font-family="sans-serif" font-size="12" lengthAdjust="spacing" textLength="39" x="489.3" y="339.9102">ggraph</text><line style="stroke:#A80036;stroke-width:1.5;" x1="452.5" x2="537.5" y1="351" y2="351"/><line style="stroke:#A80036;stroke-width:1.5;" x1="452.5" x2="537.5" y1="359" y2="359"/><text fill="#000000" font-family="sans-serif" font-size="11" lengthAdjust="spacing" textLength="75" x="457.5" y="374.4189">+SetAdjMatriz()</text><text fill="#000000" font-family="sans-serif" font-size="11" lengthAdjust="spacing" textLength="43" x="457.5" y="388.2549">+Show()</text><!--MD5=[f5e7ee3b479df05c99880ad25cfdce2c]
class manager--><rect codeLine="58" fill="#FEFECE" filter="url(#f10oo4zbghx1cl)" height="75.6719" id="manager" style="stroke:#A80036;stroke-width:1.5;" width="82" x="455" y="471"/><ellipse cx="470" cy="487" fill="#ADD1B2" rx="11" ry="11" style="stroke:#A80036;stroke-width:1.0;"/><path d="M472.7656,482.875 Q472.9219,482.6563 473.1094,482.5469 Q473.2969,482.4375 473.5156,482.4375 Q473.8906,482.4375 474.125,482.7031 Q474.3594,482.9531 474.3594,483.5625 L474.3594,485.0156 Q474.3594,485.625 474.125,485.8906 Q473.8906,486.1563 473.5156,486.1563 Q473.1719,486.1563 472.9688,485.9531 Q472.7656,485.7656 472.6563,485.25 Q472.6094,484.8906 472.4219,484.7031 Q472.0938,484.3281 471.4844,484.1094 Q470.875,483.8906 470.25,483.8906 Q469.4844,483.8906 468.8438,484.2188 Q468.2188,484.5469 467.7188,485.2969 Q467.2344,486.0469 467.2344,487.0781 L467.2344,488.1719 Q467.2344,489.4063 468.125,490.2344 Q469.0156,491.0469 470.6094,491.0469 Q471.5469,491.0469 472.2031,490.7969 Q472.5938,490.6406 473.0156,490.2031 Q473.2813,489.9375 473.4219,489.8594 Q473.5781,489.7813 473.7813,489.7813 Q474.1094,489.7813 474.3594,490.0469 Q474.625,490.2969 474.625,490.6406 Q474.625,490.9844 474.2813,491.3906 Q473.7813,491.9688 472.9844,492.2969 Q471.9063,492.75 470.6094,492.75 Q469.0938,492.75 467.8906,492.125 Q466.9063,491.625 466.2188,490.5625 Q465.5313,489.4844 465.5313,488.2031 L465.5313,487.0469 Q465.5313,485.7188 466.1406,484.5781 Q466.7656,483.4219 467.8594,482.8125 Q468.9531,482.1875 470.1875,482.1875 Q470.9219,482.1875 471.5625,482.3594 Q472.2188,482.5156 472.7656,482.875 Z " fill="#000000"/><text fill="#000000" font-family="sans-serif" font-size="12" lengthAdjust="spacing" textLength="50" x="484" y="491.9102">manager</text><line style="stroke:#A80036;stroke-width:1.5;" x1="456" x2="536" y1="503" y2="503"/><line style="stroke:#A80036;stroke-width:1.5;" x1="456" x2="536" y1="511" y2="511"/><text fill="#000000" font-family="sans-serif" font-size="11" lengthAdjust="spacing" textLength="36" x="461" y="526.4189">+Init(UI)</text><text fill="#000000" font-family="sans-serif" font-size="11" lengthAdjust="spacing" textLength="37" x="461" y="540.2549">+Start()</text><!--MD5=[7aeaacdda523a4dadd1ee820c04b2aba]
class IApp--><rect codeLine="70" fill="#FEFECE" filter="url(#f10oo4zbghx1cl)" height="75.6719" id="IApp" style="stroke:#A80036;stroke-width:1.5;" width="93" x="624.5" y="471"/><ellipse cx="639.5" cy="487" fill="#B4A7E5" rx="11" ry="11" style="stroke:#A80036;stroke-width:1.0;"/><path d="M640.4531,483.6406 L640.4531,490.2969 L642.1719,490.2969 Q642.7813,490.2969 643.0469,490.5313 Q643.3125,490.7656 643.3125,491.1563 Q643.3125,491.5313 643.0469,491.7656 Q642.7813,492 642.1719,492 L637.0313,492 Q636.4219,492 636.1563,491.7656 Q635.8906,491.5313 635.8906,491.1406 Q635.8906,490.7656 636.1563,490.5313 Q636.4219,490.2969 637.0313,490.2969 L638.75,490.2969 L638.75,483.6406 L637.0313,483.6406 Q636.4219,483.6406 636.1563,483.4063 Q635.8906,483.1719 635.8906,482.7813 Q635.8906,482.4063 636.1563,482.1719 Q636.4219,481.9375 637.0313,481.9375 L642.1719,481.9375 Q642.7813,481.9375 643.0469,482.1719 Q643.3125,482.4063 643.3125,482.7813 Q643.3125,483.1719 643.0469,483.4063 Q642.7813,483.6406 642.1719,483.6406 L640.4531,483.6406 Z " fill="#000000"/><text fill="#000000" font-family="sans-serif" font-size="12" font-style="italic" lengthAdjust="spacing" textLength="61" x="653.5" y="491.9102">Application</text><line style="stroke:#A80036;stroke-width:1.5;" x1="625.5" x2="716.5" y1="503" y2="503"/><line style="stroke:#A80036;stroke-width:1.5;" x1="625.5" x2="716.5" y1="511" y2="511"/><text fill="#000000" font-family="sans-serif" font-size="11" font-style="italic" lengthAdjust="spacing" textLength="46" x="630.5" y="526.4189">+Config()</text><text fill="#000000" font-family="sans-serif" font-size="11" font-style="italic" lengthAdjust="spacing" textLength="37" x="630.5" y="540.2549">+Start()</text><!--MD5=[58c39e05e9d6b93642a8ad4b0fb41320]
class AppGraph--><rect codeLine="75" fill="#FEFECE" filter="url(#f10oo4zbghx1cl)" height="89.5078" id="AppGraph" style="stroke:#A80036;stroke-width:1.5;" width="103" x="619.5" y="607"/><ellipse cx="641.7" cy="623" fill="#ADD1B2" rx="11" ry="11" style="stroke:#A80036;stroke-width:1.0;"/><path d="M644.4656,618.875 Q644.6219,618.6563 644.8094,618.5469 Q644.9969,618.4375 645.2156,618.4375 Q645.5906,618.4375 645.825,618.7031 Q646.0594,618.9531 646.0594,619.5625 L646.0594,621.0156 Q646.0594,621.625 645.825,621.8906 Q645.5906,622.1563 645.2156,622.1563 Q644.8719,622.1563 644.6688,621.9531 Q644.4656,621.7656 644.3563,621.25 Q644.3094,620.8906 644.1219,620.7031 Q643.7938,620.3281 643.1844,620.1094 Q642.575,619.8906 641.95,619.8906 Q641.1844,619.8906 640.5438,620.2188 Q639.9188,620.5469 639.4188,621.2969 Q638.9344,622.0469 638.9344,623.0781 L638.9344,624.1719 Q638.9344,625.4063 639.825,626.2344 Q640.7156,627.0469 642.3094,627.0469 Q643.2469,627.0469 643.9031,626.7969 Q644.2938,626.6406 644.7156,626.2031 Q644.9813,625.9375 645.1219,625.8594 Q645.2781,625.7813 645.4813,625.7813 Q645.8094,625.7813 646.0594,626.0469 Q646.325,626.2969 646.325,626.6406 Q646.325,626.9844 645.9813,627.3906 Q645.4813,627.9688 644.6844,628.2969 Q643.6063,628.75 642.3094,628.75 Q640.7938,628.75 639.5906,628.125 Q638.6063,627.625 637.9188,626.5625 Q637.2313,625.4844 637.2313,624.2031 L637.2313,623.0469 Q637.2313,621.7188 637.8406,620.5781 Q638.4656,619.4219 639.5594,618.8125 Q640.6531,618.1875 641.8875,618.1875 Q642.6219,618.1875 643.2625,618.3594 Q643.9188,618.5156 644.4656,618.875 Z " fill="#000000"/><text fill="#000000" font-family="sans-serif" font-size="12" lengthAdjust="spacing" textLength="55" x="657.3" y="627.9102">AppGraph</text><line style="stroke:#A80036;stroke-width:1.5;" x1="620.5" x2="721.5" y1="639" y2="639"/><text fill="#000000" font-family="sans-serif" font-size="11" lengthAdjust="spacing" textLength="71" x="625.5" y="654.4189">-Config  сonfig</text><text fill="#000000" font-family="sans-serif" font-size="11" lengthAdjust="spacing" textLength="91" x="625.5" y="668.2549">-Manager manager</text><text fill="#000000" font-family="sans-serif" font-size="11" lengthAdjust="spacing" textLength="73" x="625.5" y="682.0908">-GGraph graph</text><line style="stroke:#A80036;stroke-width:1.5;" x1="620.5" x2="721.5" y1="688.5078" y2="688.5078"/><!--MD5=[a172ddb92e764716fa9d6ca3f65e5ee4]
class Formain--><rect codeLine="90" fill="#FEFECE" filter="url(#f10oo4zbghx1cl)" height="48" id="Formain" style="stroke:#A80036;stroke-width:1.5;" width="78" x="32" y="130"/><ellipse cx="47" cy="146" fill="#ADD1B2" rx="11" ry="11" style="stroke:#A80036;stroke-width:1.0;"/><path d="M49.7656,141.875 Q49.9219,141.6563 50.1094,141.5469 Q50.2969,141.4375 50.5156,141.4375 Q50.8906,141.4375 51.125,141.7031 Q51.3594,141.9531 51.3594,142.5625 L51.3594,144.0156 Q51.3594,144.625 51.125,144.8906 Q50.8906,145.1563 50.5156,145.1563 Q50.1719,145.1563 49.9688,144.9531 Q49.7656,144.7656 49.6563,144.25 Q49.6094,143.8906 49.4219,143.7031 Q49.0938,143.3281 48.4844,143.1094 Q47.875,142.8906 47.25,142.8906 Q46.4844,142.8906 45.8438,143.2188 Q45.2188,143.5469 44.7188,144.2969 Q44.2344,145.0469 44.2344,146.0781 L44.2344,147.1719 Q44.2344,148.4063 45.125,149.2344 Q46.0156,150.0469 47.6094,150.0469 Q48.5469,150.0469 49.2031,149.7969 Q49.5938,149.6406 50.0156,149.2031 Q50.2813,148.9375 50.4219,148.8594 Q50.5781,148.7813 50.7813,148.7813 Q51.1094,148.7813 51.3594,149.0469 Q51.625,149.2969 51.625,149.6406 Q51.625,149.9844 51.2813,150.3906 Q50.7813,150.9688 49.9844,151.2969 Q48.9063,151.75 47.6094,151.75 Q46.0938,151.75 44.8906,151.125 Q43.9063,150.625 43.2188,149.5625 Q42.5313,148.4844 42.5313,147.2031 L42.5313,146.0469 Q42.5313,144.7188 43.1406,143.5781 Q43.7656,142.4219 44.8594,141.8125 Q45.9531,141.1875 47.1875,141.1875 Q47.9219,141.1875 48.5625,141.3594 Q49.2188,141.5156 49.7656,141.875 Z " fill="#000000"/><text fill="#000000" font-family="sans-serif" font-size="12" lengthAdjust="spacing" textLength="46" x="61" y="150.9102">Formain</text><line style="stroke:#A80036;stroke-width:1.5;" x1="33" x2="109" y1="162" y2="162"/><line style="stroke:#A80036;stroke-width:1.5;" x1="33" x2="109" y1="170" y2="170"/><path d="M587.5,6 L587.5,48.7031 A0,0 0 0 0 587.5,48.7031 L669,48.7031 L673,115.8 L677,48.7031 L758.5,48.7031 A0,0 0 0 0 758.5,48.7031 L758.5,16 L748.5,6 L587.5,6 A0,0 0 0 0 587.5,6 " fill="#FBFB77" filter="url(#f10oo4zbghx1cl)" style="stroke:#A80036;stroke-width:1.0;"/><path d="M748.5,6 L748.5,16 L758.5,16 L748.5,6 " fill="#FBFB77" style="stroke:#A80036;stroke-width:1.0;"/><text fill="#000000" font-family="sans-serif" font-size="13" lengthAdjust="spacing" textLength="89" x="593.5" y="24.4951">интерфейс для</text><text fill="#000000" font-family="sans-serif" font-size="13" lengthAdjust="spacing" textLength="146" x="597.5" y="40.8467">управления программой</text><!--MD5=[08cc9b863bcb96dacbecdfc5ee4d19fe]
reverse link IUI to uigraph--><path codeLine="38" d="M330.74,205.14 C333.57,243.03 337.36,293.8 339.74,325.7 " fill="none" id="IUI-backto-uigraph" style="stroke:#A80036;stroke-width:1.0;"/><polygon fill="none" points="323.75,205.56,329.25,185.09,337.71,204.52,323.75,205.56" style="stroke:#A80036;stroke-width:1.0;"/><!--MD5=[94ff16ab80871e65dd5e69437f90f10c]
reverse link IConfig to config--><path codeLine="46" d="M200,212.39 C200,246.59 200,289.02 200,318.86 " fill="none" id="IConfig-backto-config" style="stroke:#A80036;stroke-width:1.0;"/><polygon fill="none" points="193,212.34,200,192.34,207,212.34,193,212.34" style="stroke:#A80036;stroke-width:1.0;"/><!--MD5=[72a735ce0da255ddc18b11f6c06dfd65]
reverse link IGGraph to ggraph--><path codeLine="54" d="M504.53,219.15 C502.24,252 499.54,290.84 497.6,318.74 " fill="none" id="IGGraph-backto-ggraph" style="stroke:#A80036;stroke-width:1.0;"/><polygon fill="none" points="497.55,218.58,505.93,199.11,511.52,219.55,497.55,218.58" style="stroke:#A80036;stroke-width:1.0;"/><!--MD5=[7d4968295a0b472d9712fa19c5f95d32]
reverse link IManager to manager--><path codeLine="63" d="M651.2,210.8 C629.26,265.13 593.25,349.46 555,419 C545.35,436.54 533.34,455.12 522.68,470.75 " fill="none" id="IManager-backto-manager" style="stroke:#A80036;stroke-width:1.0;"/><polygon fill="none" points="644.71,208.19,658.63,192.22,657.71,213.39,644.71,208.19" style="stroke:#A80036;stroke-width:1.0;"/><!--MD5=[25deaaeb11161484db088882374e6275]
link ggraph to manager--><path codeLine="64" d="M495.34,408.37 C495.44,424.17 495.6709,458.8303 495.6709,458.8303 " fill="none" id="ggraph-manager" style="stroke:#A80036;stroke-width:1.0;stroke-dasharray:7.0,7.0;"/><polygon fill="#A80036" points="495.75,470.83,499.7104,464.8038,495.6709,458.8303,491.7105,464.8565,495.75,470.83" style="stroke:#A80036;stroke-width:1.0;"/><polygon fill="#A80036" points="495.25,395.08,491.3094,404.1062,495.283,400.0799,499.3093,404.0534,495.25,395.08" style="stroke:#A80036;stroke-width:1.0;"/><line style="stroke:#A80036;stroke-width:1.0;" x1="495.283" x2="495.33" y1="400.0799" y2="408.08"/><!--MD5=[224b790876f26cc20445e2e625cb40e1]
link uigraph to manager--><path codeLine="65" d="M382.75,397.69 C402.91,417.33 449.1934,462.4075 449.1934,462.4075 " fill="none" id="uigraph-manager" style="stroke:#A80036;stroke-width:1.0;stroke-dasharray:7.0,7.0;"/><polygon fill="#A80036" points="457.79,470.78,456.2825,463.7282,449.1934,462.4075,450.7009,469.4593,457.79,470.78" style="stroke:#A80036;stroke-width:1.0;"/><polygon fill="#A80036" points="373.16,388.35,376.8096,397.4977,376.7392,391.8413,382.3957,391.7709,373.16,388.35" style="stroke:#A80036;stroke-width:1.0;"/><line style="stroke:#A80036;stroke-width:1.0;" x1="376.7392" x2="382.475" y1="391.8413" y2="397.425"/><!--MD5=[6dfa7694d6ed46294fe1bccad381655c]
reverse link IApp to AppGraph--><path codeLine="80" d="M671,567.09 C671,580.37 671,594.31 671,606.93 " fill="none" id="IApp-backto-AppGraph" style="stroke:#A80036;stroke-width:1.0;"/><polygon fill="none" points="664,567.05,671,547.05,678,567.05,664,567.05" style="stroke:#A80036;stroke-width:1.0;"/><!--MD5=[1046162c5d0e06a6498effdce771e3b9]
link config to AppGraph--><path codeLine="83" d="M234.71,405.53 C276.88,459.75 353.13,547.08 439,595 C490.92,623.98 607.3314,645.0234 607.3314,645.0234 " fill="none" id="config-AppGraph" style="stroke:#A80036;stroke-width:1.0;stroke-dasharray:7.0,7.0;"/><polygon fill="#A80036" points="619.23,646.58,613.7996,641.8355,607.3314,645.0234,612.7618,649.7679,619.23,646.58" style="stroke:#A80036;stroke-width:1.0;"/><polygon fill="#A80036" points="226.73,395.15,229.0354,404.7252,229.7738,399.1168,235.3822,399.8552,226.73,395.15" style="stroke:#A80036;stroke-width:1.0;"/><line style="stroke:#A80036;stroke-width:1.0;" x1="229.7738" x2="234.65" y1="399.1168" y2="405.46"/><!--MD5=[7c109f771aa6d8510245262c5be3c26c]
link manager to AppGraph--><path codeLine="84" d="M547.45,551.46 C566.72,566.98 609.9041,601.7732 609.9041,601.7732 " fill="none" id="manager-AppGraph" style="stroke:#A80036;stroke-width:1.0;stroke-dasharray:7.0,7.0;"/><polygon fill="#A80036" points="619.25,609.3,617.086,602.4213,609.9041,601.7732,612.0681,608.6519,619.25,609.3" style="stroke:#A80036;stroke-width:1.0;"/><polygon fill="#A80036" points="537.03,543.06,541.5305,551.8204,540.9241,546.1962,546.5484,545.5898,537.03,543.06" style="stroke:#A80036;stroke-width:1.0;"/><line style="stroke:#A80036;stroke-width:1.0;" x1="540.9241" x2="547.155" y1="546.1962" y2="551.215"/><!--MD5=[753e9ae716bc9d457dcfab0e8136a5cb]
link Formain to uigraph--><path codeLine="93" d="M99.87,187.69 C113.63,201.03 131.19,215.14 150,223 C190.73,240.01 210.39,209.61 249,231 C282.33,249.47 323.28,315.2053 323.28,315.2053 " fill="none" id="Formain-uigraph" style="stroke:#A80036;stroke-width:1.0;stroke-dasharray:7.0,7.0;"/><polygon fill="#FFFFFF" points="328.82,325.85,329.5982,318.681,323.28,315.2053,322.5018,322.3743,328.82,325.85" style="stroke:#A80036;stroke-width:1.0;"/><polygon fill="#A80036" points="90.56,178.22,94.0168,187.4423,94.0652,181.7856,99.7218,181.834,90.56,178.22" style="stroke:#A80036;stroke-width:1.0;"/><line style="stroke:#A80036;stroke-width:1.0;" x1="94.0652" x2="99.675" y1="181.7856" y2="187.49"/><!--MD5=[23cc5537c2f9918ea36326140de5b8e2]
@startuml
skinparam ClassAttributeIconSize 0

package "model" {

    
    interface IUI as "UI" {
        + {abstract} MakeMainWindow()
    }

    interface IGGraph as "GGraph" {
        + {abstract} SetSimpleAdjMatrix(AdjMatrix)
        + {abstract} SetDirectedAdjMatrix(AdjMatrix)
        + {abstract} Show()
    }

    interface IConfig as "Config" {
        + {abstract} Load()
        + {abstract} Save()
    }

    interface IManager as "Manager" {
        + {abstract} Init()
        + {abstract} Start()
    }

}

note "интерфейс для\n управления программой" as N1
N1 .. IManager  
    
package "internal" {

    package "ui" {
        class uigraph {
            + MakeMainWindow
        }
    }
    IUI <|- - uigraph

    package "config" {
        class config {
            + Load()
            + Save()
        }
    }
    IConfig <|- - config

    package "ggraph" {
        class ggraph{
            + SetAdjMatriz()
            + Show()
        }
    }
    IGGraph  <|- - ggraph
    

    package "manager" {
        class manager{
            + Init(UI)
            + Start()
        }
    }
    IManager <|- - manager
    ggraph  <..* manager
    uigraph  <..* manager
}

package "app" {

    interface IApp as "Application" {
        + {abstract} Config()
        + {abstract} Start()
    }

    class AppGraph{
        - Config  сonfig
        - Manager manager
        - GGraph graph
    }
    IApp <|- -AppGraph

    
    config  <..* AppGraph
    manager <..* AppGraph

    
}

package GUI {
    class Formain {}
    
}
Formain <..o uigraph

@enduml

PlantUML version 1.2022.0(Tue Jan 11 19:16:42 MSK 2022)
(GPL source distribution)
Java Runtime: OpenJDK Runtime Environment
JVM: OpenJDK 64-Bit Server VM
Default Encoding: Cp1251
Language: ru
Country: RU
--></g></svg>