<?xml version="1.0" encoding="UTF-8" standalone="no"?><svg xmlns="http://www.w3.org/2000/svg" xmlns:xlink="http://www.w3.org/1999/xlink" contentScriptType="application/ecmascript" contentStyleType="text/css" height="888px" preserveAspectRatio="none" style="width:1120px;height:888px;background:#FFFFFF;" version="1.1" viewBox="0 0 1120 888" width="1120px" zoomAndPan="magnify"><defs><filter height="300%" id="f1dkln5w7v38m5" width="300%" x="-1" y="-1"><feGaussianBlur result="blurOut" stdDeviation="2.0"/><feColorMatrix in="blurOut" result="blurOut2" type="matrix" values="0 0 0 0 0 0 0 0 0 0 0 0 0 0 0 0 0 0 .4 0"/><feOffset dx="4.0" dy="4.0" in="blurOut2" result="blurOut3"/><feBlend in="SourceGraphic" in2="blurOut3" mode="normal"/></filter></defs><g><!--MD5=[5d4cd377749310b66bf14896f5cd8d9b]
cluster model--><polygon fill="#FFFFFF" filter="url(#f1dkln5w7v38m5)" points="352.55,73,401.55,73,408.55,96.6094,1103.55,96.6094,1103.55,394,352.55,394,352.55,73" style="stroke:#000000;stroke-width:1.5;"/><line style="stroke:#000000;stroke-width:1.5;" x1="352.55" x2="408.55" y1="96.6094" y2="96.6094"/><text fill="#000000" font-family="sans-serif" font-size="14" font-weight="bold" lengthAdjust="spacing" textLength="43" x="356.55" y="89.5332">model</text><!--MD5=[c27d767109b3913d4718b358a17ad24a]
cluster internal--><polygon fill="#FFFFFF" filter="url(#f1dkln5w7v38m5)" points="38.55,215,98.55,215,105.55,238.6094,328.55,238.6094,328.55,577,38.55,577,38.55,215" style="stroke:#000000;stroke-width:1.5;"/><line style="stroke:#000000;stroke-width:1.5;" x1="38.55" x2="105.55" y1="238.6094" y2="238.6094"/><text fill="#000000" font-family="sans-serif" font-size="14" font-weight="bold" lengthAdjust="spacing" textLength="54" x="42.55" y="231.5332">internal</text><!--MD5=[77140a42179fe8241cde5d77dd05aadc]
cluster config--><polygon fill="#FFFFFF" filter="url(#f1dkln5w7v38m5)" points="206.55,259,256.55,259,263.55,282.6094,304.55,282.6094,304.55,387,206.55,387,206.55,259" style="stroke:#000000;stroke-width:1.5;"/><line style="stroke:#000000;stroke-width:1.5;" x1="206.55" x2="263.55" y1="282.6094" y2="282.6094"/><text fill="#000000" font-family="sans-serif" font-size="14" font-weight="bold" lengthAdjust="spacing" textLength="44" x="210.55" y="275.5332">config</text><!--MD5=[05c08c64fd7074a05f164777cc39d98f]
cluster ggraph--><polygon fill="#FFFFFF" filter="url(#f1dkln5w7v38m5)" points="62.55,259,118.55,259,125.55,282.6094,182.55,282.6094,182.55,387,62.55,387,62.55,259" style="stroke:#000000;stroke-width:1.5;"/><line style="stroke:#000000;stroke-width:1.5;" x1="62.55" x2="125.55" y1="282.6094" y2="282.6094"/><text fill="#000000" font-family="sans-serif" font-size="14" font-weight="bold" lengthAdjust="spacing" textLength="50" x="66.55" y="275.5332">ggraph</text><!--MD5=[10ad930ee69173cd9d3aa754f8a8a48b]
cluster manager--><polygon fill="#FFFFFF" filter="url(#f1dkln5w7v38m5)" points="65.55,425,132.55,425,139.55,448.6094,179.55,448.6094,179.55,553,65.55,553,65.55,425" style="stroke:#000000;stroke-width:1.5;"/><line style="stroke:#000000;stroke-width:1.5;" x1="65.55" x2="139.55" y1="448.6094" y2="448.6094"/><text fill="#000000" font-family="sans-serif" font-size="14" font-weight="bold" lengthAdjust="spacing" textLength="61" x="69.55" y="441.5332">manager</text><!--MD5=[11b63f87f9efce6fda9831b98bfa73ba]
cluster gui--><polygon fill="#FFFFFF" filter="url(#f1dkln5w7v38m5)" points="464.55,418,492.55,418,499.55,441.6094,682.55,441.6094,682.55,722,464.55,722,464.55,418" style="stroke:#000000;stroke-width:1.5;"/><line style="stroke:#000000;stroke-width:1.5;" x1="464.55" x2="499.55" y1="441.6094" y2="441.6094"/><text fill="#000000" font-family="sans-serif" font-size="14" font-weight="bold" lengthAdjust="spacing" textLength="22" x="468.55" y="434.5332">gui</text><!--MD5=[d5ac3844f66b12d9e08170e47495e096]
cluster app--><polygon fill="#FFFFFF" filter="url(#f1dkln5w7v38m5)" points="706.55,601,738.55,601,745.55,624.6094,862.55,624.6094,862.55,881,706.55,881,706.55,601" style="stroke:#000000;stroke-width:1.5;"/><line style="stroke:#000000;stroke-width:1.5;" x1="706.55" x2="745.55" y1="624.6094" y2="624.6094"/><text fill="#000000" font-family="sans-serif" font-size="14" font-weight="bold" lengthAdjust="spacing" textLength="26" x="710.55" y="617.5332">app</text><!--MD5=[d77ae2549ff11ae59699f76b7d8f7963]
cluster cmd--><polygon fill="#FFFFFF" filter="url(#f1dkln5w7v38m5)" points="886.55,746,921.55,746,928.55,769.6094,992.55,769.6094,992.55,874,886.55,874,886.55,746" style="stroke:#000000;stroke-width:1.5;"/><line style="stroke:#000000;stroke-width:1.5;" x1="886.55" x2="928.55" y1="769.6094" y2="769.6094"/><text fill="#000000" font-family="sans-serif" font-size="14" font-weight="bold" lengthAdjust="spacing" textLength="29" x="890.55" y="762.5332">cmd</text><!--MD5=[f4a289e24d2a9d194ff345de873cc0fe]
class IGGraph--><rect codeLine="5" fill="#FEFECE" filter="url(#f1dkln5w7v38m5)" height="89.5078" id="IGGraph" style="stroke:#A80036;stroke-width:1.5;" width="178" x="483.55" y="109"/><ellipse cx="546.8" cy="125" fill="#B4A7E5" rx="11" ry="11" style="stroke:#A80036;stroke-width:1.0;"/><path d="M547.7531,121.6406 L547.7531,128.2969 L549.4719,128.2969 Q550.0813,128.2969 550.3469,128.5313 Q550.6125,128.7656 550.6125,129.1563 Q550.6125,129.5313 550.3469,129.7656 Q550.0813,130 549.4719,130 L544.3313,130 Q543.7219,130 543.4563,129.7656 Q543.1906,129.5313 543.1906,129.1406 Q543.1906,128.7656 543.4563,128.5313 Q543.7219,128.2969 544.3313,128.2969 L546.05,128.2969 L546.05,121.6406 L544.3313,121.6406 Q543.7219,121.6406 543.4563,121.4063 Q543.1906,121.1719 543.1906,120.7813 Q543.1906,120.4063 543.4563,120.1719 Q543.7219,119.9375 544.3313,119.9375 L549.4719,119.9375 Q550.0813,119.9375 550.3469,120.1719 Q550.6125,120.4063 550.6125,120.7813 Q550.6125,121.1719 550.3469,121.4063 Q550.0813,121.6406 549.4719,121.6406 L547.7531,121.6406 Z " fill="#000000"/><text fill="#000000" font-family="sans-serif" font-size="12" font-style="italic" lengthAdjust="spacing" textLength="43" x="567.3" y="129.9102">GGraph</text><line style="stroke:#A80036;stroke-width:1.5;" x1="484.55" x2="660.55" y1="141" y2="141"/><line style="stroke:#A80036;stroke-width:1.5;" x1="484.55" x2="660.55" y1="149" y2="149"/><text fill="#000000" font-family="sans-serif" font-size="11" font-style="italic" lengthAdjust="spacing" textLength="158" x="489.55" y="164.4189">+SetSimpleAdjMatrix(AdjMatrix)</text><text fill="#000000" font-family="sans-serif" font-size="11" font-style="italic" lengthAdjust="spacing" textLength="166" x="489.55" y="178.2549">+SetDirectedAdjMatrix(AdjMatrix)</text><text fill="#000000" font-family="sans-serif" font-size="11" font-style="italic" lengthAdjust="spacing" textLength="40" x="489.55" y="192.0908">+Show()</text><!--MD5=[5c0eb67a6a4b471579a32057e208c544]
class IConfig--><rect codeLine="11" fill="#FEFECE" filter="url(#f1dkln5w7v38m5)" height="75.6719" id="IConfig" style="stroke:#A80036;stroke-width:1.5;" width="68" x="696.55" y="116"/><ellipse cx="711.55" cy="132" fill="#B4A7E5" rx="11" ry="11" style="stroke:#A80036;stroke-width:1.0;"/><path d="M712.5031,128.6406 L712.5031,135.2969 L714.2219,135.2969 Q714.8313,135.2969 715.0969,135.5313 Q715.3625,135.7656 715.3625,136.1563 Q715.3625,136.5313 715.0969,136.7656 Q714.8313,137 714.2219,137 L709.0813,137 Q708.4719,137 708.2063,136.7656 Q707.9406,136.5313 707.9406,136.1406 Q707.9406,135.7656 708.2063,135.5313 Q708.4719,135.2969 709.0813,135.2969 L710.8,135.2969 L710.8,128.6406 L709.0813,128.6406 Q708.4719,128.6406 708.2063,128.4063 Q707.9406,128.1719 707.9406,127.7813 Q707.9406,127.4063 708.2063,127.1719 Q708.4719,126.9375 709.0813,126.9375 L714.2219,126.9375 Q714.8313,126.9375 715.0969,127.1719 Q715.3625,127.4063 715.3625,127.7813 Q715.3625,128.1719 715.0969,128.4063 Q714.8313,128.6406 714.2219,128.6406 L712.5031,128.6406 Z " fill="#000000"/><text fill="#000000" font-family="sans-serif" font-size="12" font-style="italic" lengthAdjust="spacing" textLength="36" x="725.55" y="136.9102">Config</text><line style="stroke:#A80036;stroke-width:1.5;" x1="697.55" x2="763.55" y1="148" y2="148"/><line style="stroke:#A80036;stroke-width:1.5;" x1="697.55" x2="763.55" y1="156" y2="156"/><text fill="#000000" font-family="sans-serif" font-size="11" font-style="italic" lengthAdjust="spacing" textLength="38" x="702.55" y="171.4189">+Load()</text><text fill="#000000" font-family="sans-serif" font-size="11" font-style="italic" lengthAdjust="spacing" textLength="38" x="702.55" y="185.2549">+Save()</text><!--MD5=[08857f5f734705466f35c6a4db27ff27]
class IManager--><rect codeLine="16" fill="#FEFECE" filter="url(#f1dkln5w7v38m5)" height="75.6719" id="IManager" style="stroke:#A80036;stroke-width:1.5;" width="80" x="368.55" y="116"/><ellipse cx="383.55" cy="132" fill="#B4A7E5" rx="11" ry="11" style="stroke:#A80036;stroke-width:1.0;"/><path d="M384.5031,128.6406 L384.5031,135.2969 L386.2219,135.2969 Q386.8313,135.2969 387.0969,135.5313 Q387.3625,135.7656 387.3625,136.1563 Q387.3625,136.5313 387.0969,136.7656 Q386.8313,137 386.2219,137 L381.0813,137 Q380.4719,137 380.2063,136.7656 Q379.9406,136.5313 379.9406,136.1406 Q379.9406,135.7656 380.2063,135.5313 Q380.4719,135.2969 381.0813,135.2969 L382.8,135.2969 L382.8,128.6406 L381.0813,128.6406 Q380.4719,128.6406 380.2063,128.4063 Q379.9406,128.1719 379.9406,127.7813 Q379.9406,127.4063 380.2063,127.1719 Q380.4719,126.9375 381.0813,126.9375 L386.2219,126.9375 Q386.8313,126.9375 387.0969,127.1719 Q387.3625,127.4063 387.3625,127.7813 Q387.3625,128.1719 387.0969,128.4063 Q386.8313,128.6406 386.2219,128.6406 L384.5031,128.6406 Z " fill="#000000"/><text fill="#000000" font-family="sans-serif" font-size="12" font-style="italic" lengthAdjust="spacing" textLength="48" x="397.55" y="136.9102">Manager</text><line style="stroke:#A80036;stroke-width:1.5;" x1="369.55" x2="447.55" y1="148" y2="148"/><line style="stroke:#A80036;stroke-width:1.5;" x1="369.55" x2="447.55" y1="156" y2="156"/><text fill="#000000" font-family="sans-serif" font-size="11" font-style="italic" lengthAdjust="spacing" textLength="29" x="374.55" y="171.4189">+Init()</text><text fill="#000000" font-family="sans-serif" font-size="11" font-style="italic" lengthAdjust="spacing" textLength="37" x="374.55" y="185.2549">+Start()</text><!--MD5=[7f781f255a26402df669825fb3b0f610]
class IUIBase--><rect codeLine="21" fill="#FEFECE" filter="url(#f1dkln5w7v38m5)" height="61.8359" id="IUIBase" style="stroke:#A80036;stroke-width:1.5;" width="73" x="800.05" y="123"/><ellipse cx="815.05" cy="139" fill="#B4A7E5" rx="11" ry="11" style="stroke:#A80036;stroke-width:1.0;"/><path d="M816.0031,135.6406 L816.0031,142.2969 L817.7219,142.2969 Q818.3313,142.2969 818.5969,142.5313 Q818.8625,142.7656 818.8625,143.1563 Q818.8625,143.5313 818.5969,143.7656 Q818.3313,144 817.7219,144 L812.5813,144 Q811.9719,144 811.7063,143.7656 Q811.4406,143.5313 811.4406,143.1406 Q811.4406,142.7656 811.7063,142.5313 Q811.9719,142.2969 812.5813,142.2969 L814.3,142.2969 L814.3,135.6406 L812.5813,135.6406 Q811.9719,135.6406 811.7063,135.4063 Q811.4406,135.1719 811.4406,134.7813 Q811.4406,134.4063 811.7063,134.1719 Q811.9719,133.9375 812.5813,133.9375 L817.7219,133.9375 Q818.3313,133.9375 818.5969,134.1719 Q818.8625,134.4063 818.8625,134.7813 Q818.8625,135.1719 818.5969,135.4063 Q818.3313,135.6406 817.7219,135.6406 L816.0031,135.6406 Z " fill="#000000"/><text fill="#000000" font-family="sans-serif" font-size="12" font-style="italic" lengthAdjust="spacing" textLength="41" x="829.05" y="143.9102">UIBase</text><line style="stroke:#A80036;stroke-width:1.5;" x1="801.05" x2="872.05" y1="155" y2="155"/><line style="stroke:#A80036;stroke-width:1.5;" x1="801.05" x2="872.05" y1="163" y2="163"/><text fill="#000000" font-family="sans-serif" font-size="11" font-style="italic" lengthAdjust="spacing" textLength="40" x="806.05" y="178.4189">+Show()</text><!--MD5=[77872a3b59ad8c140d848ca9570da5db]
class IGUIFactory--><rect codeLine="25" fill="#FEFECE" filter="url(#f1dkln5w7v38m5)" height="61.8359" id="IGUIFactory" style="stroke:#A80036;stroke-width:1.5;" width="179" x="908.05" y="123"/><ellipse cx="962.3" cy="139" fill="#B4A7E5" rx="11" ry="11" style="stroke:#A80036;stroke-width:1.0;"/><path d="M963.2531,135.6406 L963.2531,142.2969 L964.9719,142.2969 Q965.5813,142.2969 965.8469,142.5313 Q966.1125,142.7656 966.1125,143.1563 Q966.1125,143.5313 965.8469,143.7656 Q965.5813,144 964.9719,144 L959.8313,144 Q959.2219,144 958.9563,143.7656 Q958.6906,143.5313 958.6906,143.1406 Q958.6906,142.7656 958.9563,142.5313 Q959.2219,142.2969 959.8313,142.2969 L961.55,142.2969 L961.55,135.6406 L959.8313,135.6406 Q959.2219,135.6406 958.9563,135.4063 Q958.6906,135.1719 958.6906,134.7813 Q958.6906,134.4063 958.9563,134.1719 Q959.2219,133.9375 959.8313,133.9375 L964.9719,133.9375 Q965.5813,133.9375 965.8469,134.1719 Q966.1125,134.4063 966.1125,134.7813 Q966.1125,135.1719 965.8469,135.4063 Q965.5813,135.6406 964.9719,135.6406 L963.2531,135.6406 Z " fill="#000000"/><text fill="#000000" font-family="sans-serif" font-size="12" font-style="italic" lengthAdjust="spacing" textLength="62" x="982.8" y="143.9102">GUIFactory</text><line style="stroke:#A80036;stroke-width:1.5;" x1="909.05" x2="1086.05" y1="155" y2="155"/><line style="stroke:#A80036;stroke-width:1.5;" x1="909.05" x2="1086.05" y1="163" y2="163"/><text fill="#000000" font-family="sans-serif" font-size="11" font-style="italic" lengthAdjust="spacing" textLength="167" x="914.05" y="178.4189">+MakeMainWindow() UIFormMain</text><!--MD5=[a6ef9379d143a55a54761c03b8d7673e]
class IUIFormMain--><rect codeLine="29" fill="#FEFECE" filter="url(#f1dkln5w7v38m5)" height="89.5078" id="IUIFormMain" style="stroke:#A80036;stroke-width:1.5;" width="194" x="478.55" y="288"/><ellipse cx="537.3" cy="304" fill="#B4A7E5" rx="11" ry="11" style="stroke:#A80036;stroke-width:1.0;"/><path d="M538.2531,300.6406 L538.2531,307.2969 L539.9719,307.2969 Q540.5813,307.2969 540.8469,307.5313 Q541.1125,307.7656 541.1125,308.1563 Q541.1125,308.5313 540.8469,308.7656 Q540.5813,309 539.9719,309 L534.8313,309 Q534.2219,309 533.9563,308.7656 Q533.6906,308.5313 533.6906,308.1406 Q533.6906,307.7656 533.9563,307.5313 Q534.2219,307.2969 534.8313,307.2969 L536.55,307.2969 L536.55,300.6406 L534.8313,300.6406 Q534.2219,300.6406 533.9563,300.4063 Q533.6906,300.1719 533.6906,299.7813 Q533.6906,299.4063 533.9563,299.1719 Q534.2219,298.9375 534.8313,298.9375 L539.9719,298.9375 Q540.5813,298.9375 540.8469,299.1719 Q541.1125,299.4063 541.1125,299.7813 Q541.1125,300.1719 540.8469,300.4063 Q540.5813,300.6406 539.9719,300.6406 L538.2531,300.6406 Z " fill="#000000"/><text fill="#000000" font-family="sans-serif" font-size="12" font-style="italic" lengthAdjust="spacing" textLength="68" x="557.8" y="308.9102">UIFormMain</text><line style="stroke:#A80036;stroke-width:1.5;" x1="479.55" x2="671.55" y1="320" y2="320"/><text fill="#000000" font-family="sans-serif" font-size="11" font-style="italic" lengthAdjust="spacing" textLength="74" x="484.55" y="335.4189">+model.UIBase</text><line style="stroke:#A80036;stroke-width:1.5;" x1="479.55" x2="671.55" y1="341.8359" y2="341.8359"/><text fill="#000000" font-family="sans-serif" font-size="11" font-style="italic" lengthAdjust="spacing" textLength="141" x="484.55" y="357.2549">+Init(manag model.Manager)</text><text fill="#000000" font-family="sans-serif" font-size="11" font-style="italic" lengthAdjust="spacing" textLength="182" x="484.55" y="371.0908">+SetSimpleAdjMatrix(adm AdjMatrix)</text><!--MD5=[9a247f74696882179a492ab5ab0ccb2c]
class config--><rect codeLine="44" fill="#FEFECE" filter="url(#f1dkln5w7v38m5)" height="75.6719" id="config" style="stroke:#A80036;stroke-width:1.5;" width="65" x="223.05" y="295"/><ellipse cx="238.05" cy="311" fill="#ADD1B2" rx="11" ry="11" style="stroke:#A80036;stroke-width:1.0;"/><path d="M240.8156,306.875 Q240.9719,306.6563 241.1594,306.5469 Q241.3469,306.4375 241.5656,306.4375 Q241.9406,306.4375 242.175,306.7031 Q242.4094,306.9531 242.4094,307.5625 L242.4094,309.0156 Q242.4094,309.625 242.175,309.8906 Q241.9406,310.1563 241.5656,310.1563 Q241.2219,310.1563 241.0188,309.9531 Q240.8156,309.7656 240.7063,309.25 Q240.6594,308.8906 240.4719,308.7031 Q240.1438,308.3281 239.5344,308.1094 Q238.925,307.8906 238.3,307.8906 Q237.5344,307.8906 236.8938,308.2188 Q236.2688,308.5469 235.7688,309.2969 Q235.2844,310.0469 235.2844,311.0781 L235.2844,312.1719 Q235.2844,313.4063 236.175,314.2344 Q237.0656,315.0469 238.6594,315.0469 Q239.5969,315.0469 240.2531,314.7969 Q240.6438,314.6406 241.0656,314.2031 Q241.3313,313.9375 241.4719,313.8594 Q241.6281,313.7813 241.8313,313.7813 Q242.1594,313.7813 242.4094,314.0469 Q242.675,314.2969 242.675,314.6406 Q242.675,314.9844 242.3313,315.3906 Q241.8313,315.9688 241.0344,316.2969 Q239.9563,316.75 238.6594,316.75 Q237.1438,316.75 235.9406,316.125 Q234.9563,315.625 234.2688,314.5625 Q233.5813,313.4844 233.5813,312.2031 L233.5813,311.0469 Q233.5813,309.7188 234.1906,308.5781 Q234.8156,307.4219 235.9094,306.8125 Q237.0031,306.1875 238.2375,306.1875 Q238.9719,306.1875 239.6125,306.3594 Q240.2688,306.5156 240.8156,306.875 Z " fill="#000000"/><text fill="#000000" font-family="sans-serif" font-size="12" lengthAdjust="spacing" textLength="33" x="252.05" y="315.9102">config</text><line style="stroke:#A80036;stroke-width:1.5;" x1="224.05" x2="287.05" y1="327" y2="327"/><line style="stroke:#A80036;stroke-width:1.5;" x1="224.05" x2="287.05" y1="335" y2="335"/><text fill="#000000" font-family="sans-serif" font-size="11" lengthAdjust="spacing" textLength="38" x="229.05" y="350.4189">+Load()</text><text fill="#000000" font-family="sans-serif" font-size="11" lengthAdjust="spacing" textLength="39" x="229.05" y="364.2549">+Save()</text><!--MD5=[58cc09d5a5e1d3e80b9bec30e18ca822]
class ggraph--><rect codeLine="52" fill="#FEFECE" filter="url(#f1dkln5w7v38m5)" height="75.6719" id="ggraph" style="stroke:#A80036;stroke-width:1.5;" width="87" x="79.05" y="295"/><ellipse cx="101.25" cy="311" fill="#ADD1B2" rx="11" ry="11" style="stroke:#A80036;stroke-width:1.0;"/><path d="M104.0156,306.875 Q104.1719,306.6563 104.3594,306.5469 Q104.5469,306.4375 104.7656,306.4375 Q105.1406,306.4375 105.375,306.7031 Q105.6094,306.9531 105.6094,307.5625 L105.6094,309.0156 Q105.6094,309.625 105.375,309.8906 Q105.1406,310.1563 104.7656,310.1563 Q104.4219,310.1563 104.2188,309.9531 Q104.0156,309.7656 103.9063,309.25 Q103.8594,308.8906 103.6719,308.7031 Q103.3438,308.3281 102.7344,308.1094 Q102.125,307.8906 101.5,307.8906 Q100.7344,307.8906 100.0938,308.2188 Q99.4688,308.5469 98.9688,309.2969 Q98.4844,310.0469 98.4844,311.0781 L98.4844,312.1719 Q98.4844,313.4063 99.375,314.2344 Q100.2656,315.0469 101.8594,315.0469 Q102.7969,315.0469 103.4531,314.7969 Q103.8438,314.6406 104.2656,314.2031 Q104.5313,313.9375 104.6719,313.8594 Q104.8281,313.7813 105.0313,313.7813 Q105.3594,313.7813 105.6094,314.0469 Q105.875,314.2969 105.875,314.6406 Q105.875,314.9844 105.5313,315.3906 Q105.0313,315.9688 104.2344,316.2969 Q103.1563,316.75 101.8594,316.75 Q100.3438,316.75 99.1406,316.125 Q98.1563,315.625 97.4688,314.5625 Q96.7813,313.4844 96.7813,312.2031 L96.7813,311.0469 Q96.7813,309.7188 97.3906,308.5781 Q98.0156,307.4219 99.1094,306.8125 Q100.2031,306.1875 101.4375,306.1875 Q102.1719,306.1875 102.8125,306.3594 Q103.4688,306.5156 104.0156,306.875 Z " fill="#000000"/><text fill="#000000" font-family="sans-serif" font-size="12" lengthAdjust="spacing" textLength="39" x="116.85" y="315.9102">ggraph</text><line style="stroke:#A80036;stroke-width:1.5;" x1="80.05" x2="165.05" y1="327" y2="327"/><line style="stroke:#A80036;stroke-width:1.5;" x1="80.05" x2="165.05" y1="335" y2="335"/><text fill="#000000" font-family="sans-serif" font-size="11" lengthAdjust="spacing" textLength="75" x="85.05" y="350.4189">+SetAdjMatriz()</text><text fill="#000000" font-family="sans-serif" font-size="11" lengthAdjust="spacing" textLength="43" x="85.05" y="364.2549">+Show()</text><!--MD5=[f5e7ee3b479df05c99880ad25cfdce2c]
class manager--><rect codeLine="60" fill="#FEFECE" filter="url(#f1dkln5w7v38m5)" height="75.6719" id="manager" style="stroke:#A80036;stroke-width:1.5;" width="82" x="81.55" y="461"/><ellipse cx="96.55" cy="477" fill="#ADD1B2" rx="11" ry="11" style="stroke:#A80036;stroke-width:1.0;"/><path d="M99.3156,472.875 Q99.4719,472.6563 99.6594,472.5469 Q99.8469,472.4375 100.0656,472.4375 Q100.4406,472.4375 100.675,472.7031 Q100.9094,472.9531 100.9094,473.5625 L100.9094,475.0156 Q100.9094,475.625 100.675,475.8906 Q100.4406,476.1563 100.0656,476.1563 Q99.7219,476.1563 99.5188,475.9531 Q99.3156,475.7656 99.2063,475.25 Q99.1594,474.8906 98.9719,474.7031 Q98.6438,474.3281 98.0344,474.1094 Q97.425,473.8906 96.8,473.8906 Q96.0344,473.8906 95.3938,474.2188 Q94.7688,474.5469 94.2688,475.2969 Q93.7844,476.0469 93.7844,477.0781 L93.7844,478.1719 Q93.7844,479.4063 94.675,480.2344 Q95.5656,481.0469 97.1594,481.0469 Q98.0969,481.0469 98.7531,480.7969 Q99.1438,480.6406 99.5656,480.2031 Q99.8313,479.9375 99.9719,479.8594 Q100.1281,479.7813 100.3313,479.7813 Q100.6594,479.7813 100.9094,480.0469 Q101.175,480.2969 101.175,480.6406 Q101.175,480.9844 100.8313,481.3906 Q100.3313,481.9688 99.5344,482.2969 Q98.4563,482.75 97.1594,482.75 Q95.6438,482.75 94.4406,482.125 Q93.4563,481.625 92.7688,480.5625 Q92.0813,479.4844 92.0813,478.2031 L92.0813,477.0469 Q92.0813,475.7188 92.6906,474.5781 Q93.3156,473.4219 94.4094,472.8125 Q95.5031,472.1875 96.7375,472.1875 Q97.4719,472.1875 98.1125,472.3594 Q98.7688,472.5156 99.3156,472.875 Z " fill="#000000"/><text fill="#000000" font-family="sans-serif" font-size="12" lengthAdjust="spacing" textLength="50" x="110.55" y="481.9102">manager</text><line style="stroke:#A80036;stroke-width:1.5;" x1="82.55" x2="162.55" y1="493" y2="493"/><line style="stroke:#A80036;stroke-width:1.5;" x1="82.55" x2="162.55" y1="501" y2="501"/><text fill="#000000" font-family="sans-serif" font-size="11" lengthAdjust="spacing" textLength="27" x="87.55" y="516.4189">+Init()</text><text fill="#000000" font-family="sans-serif" font-size="11" lengthAdjust="spacing" textLength="37" x="87.55" y="530.2549">+Start()</text><!--MD5=[87d3afd39617a341ccb9f5eaf445daba]
class formain--><rect codeLine="72" fill="#FEFECE" filter="url(#f1dkln5w7v38m5)" height="89.5078" id="formain" style="stroke:#A80036;stroke-width:1.5;" width="186" x="480.55" y="454"/><ellipse cx="548.3" cy="470" fill="#ADD1B2" rx="11" ry="11" style="stroke:#A80036;stroke-width:1.0;"/><path d="M551.0656,465.875 Q551.2219,465.6563 551.4094,465.5469 Q551.5969,465.4375 551.8156,465.4375 Q552.1906,465.4375 552.425,465.7031 Q552.6594,465.9531 552.6594,466.5625 L552.6594,468.0156 Q552.6594,468.625 552.425,468.8906 Q552.1906,469.1563 551.8156,469.1563 Q551.4719,469.1563 551.2688,468.9531 Q551.0656,468.7656 550.9563,468.25 Q550.9094,467.8906 550.7219,467.7031 Q550.3938,467.3281 549.7844,467.1094 Q549.175,466.8906 548.55,466.8906 Q547.7844,466.8906 547.1438,467.2188 Q546.5188,467.5469 546.0188,468.2969 Q545.5344,469.0469 545.5344,470.0781 L545.5344,471.1719 Q545.5344,472.4063 546.425,473.2344 Q547.3156,474.0469 548.9094,474.0469 Q549.8469,474.0469 550.5031,473.7969 Q550.8938,473.6406 551.3156,473.2031 Q551.5813,472.9375 551.7219,472.8594 Q551.8781,472.7813 552.0813,472.7813 Q552.4094,472.7813 552.6594,473.0469 Q552.925,473.2969 552.925,473.6406 Q552.925,473.9844 552.5813,474.3906 Q552.0813,474.9688 551.2844,475.2969 Q550.2063,475.75 548.9094,475.75 Q547.3938,475.75 546.1906,475.125 Q545.2063,474.625 544.5188,473.5625 Q543.8313,472.4844 543.8313,471.2031 L543.8313,470.0469 Q543.8313,468.7188 544.4406,467.5781 Q545.0656,466.4219 546.1594,465.8125 Q547.2531,465.1875 548.4875,465.1875 Q549.2219,465.1875 549.8625,465.3594 Q550.5188,465.5156 551.0656,465.875 Z " fill="#000000"/><text fill="#000000" font-family="sans-serif" font-size="12" lengthAdjust="spacing" textLength="42" x="568.8" y="474.9102">formain</text><line style="stroke:#A80036;stroke-width:1.5;" x1="481.55" x2="665.55" y1="486" y2="486"/><line style="stroke:#A80036;stroke-width:1.5;" x1="481.55" x2="665.55" y1="494" y2="494"/><text fill="#000000" font-family="sans-serif" font-size="11" lengthAdjust="spacing" textLength="135" x="486.55" y="509.4189">+Init(manag model.Manager)</text><text fill="#000000" font-family="sans-serif" font-size="11" lengthAdjust="spacing" textLength="174" x="486.55" y="523.2549">+SetSimpleAdjMatrix(adm AdjMatrix)</text><text fill="#000000" font-family="sans-serif" font-size="11" lengthAdjust="spacing" textLength="43" x="486.55" y="537.0908">+Show()</text><!--MD5=[b187e21e14becdfcfc30d8daf3536523]
class guifactory--><rect codeLine="79" fill="#FEFECE" filter="url(#f1dkln5w7v38m5)" height="61.8359" id="guifactory" style="stroke:#A80036;stroke-width:1.5;" width="173" x="493.05" y="644"/><ellipse cx="549.3" cy="660" fill="#ADD1B2" rx="11" ry="11" style="stroke:#A80036;stroke-width:1.0;"/><path d="M552.0656,655.875 Q552.2219,655.6563 552.4094,655.5469 Q552.5969,655.4375 552.8156,655.4375 Q553.1906,655.4375 553.425,655.7031 Q553.6594,655.9531 553.6594,656.5625 L553.6594,658.0156 Q553.6594,658.625 553.425,658.8906 Q553.1906,659.1563 552.8156,659.1563 Q552.4719,659.1563 552.2688,658.9531 Q552.0656,658.7656 551.9563,658.25 Q551.9094,657.8906 551.7219,657.7031 Q551.3938,657.3281 550.7844,657.1094 Q550.175,656.8906 549.55,656.8906 Q548.7844,656.8906 548.1438,657.2188 Q547.5188,657.5469 547.0188,658.2969 Q546.5344,659.0469 546.5344,660.0781 L546.5344,661.1719 Q546.5344,662.4063 547.425,663.2344 Q548.3156,664.0469 549.9094,664.0469 Q550.8469,664.0469 551.5031,663.7969 Q551.8938,663.6406 552.3156,663.2031 Q552.5813,662.9375 552.7219,662.8594 Q552.8781,662.7813 553.0813,662.7813 Q553.4094,662.7813 553.6594,663.0469 Q553.925,663.2969 553.925,663.6406 Q553.925,663.9844 553.5813,664.3906 Q553.0813,664.9688 552.2844,665.2969 Q551.2063,665.75 549.9094,665.75 Q548.3938,665.75 547.1906,665.125 Q546.2063,664.625 545.5188,663.5625 Q544.8313,662.4844 544.8313,661.2031 L544.8313,660.0469 Q544.8313,658.7188 545.4406,657.5781 Q546.0656,656.4219 547.1594,655.8125 Q548.2531,655.1875 549.4875,655.1875 Q550.2219,655.1875 550.8625,655.3594 Q551.5188,655.5156 552.0656,655.875 Z " fill="#000000"/><text fill="#000000" font-family="sans-serif" font-size="12" lengthAdjust="spacing" textLength="52" x="569.8" y="664.9102">guifactory</text><line style="stroke:#A80036;stroke-width:1.5;" x1="494.05" x2="665.05" y1="676" y2="676"/><line style="stroke:#A80036;stroke-width:1.5;" x1="494.05" x2="665.05" y1="684" y2="684"/><text fill="#000000" font-family="sans-serif" font-size="11" lengthAdjust="spacing" textLength="161" x="499.05" y="699.4189">+MakeMainWindow() IUIFormMain</text><!--MD5=[7aeaacdda523a4dadd1ee820c04b2aba]
class IApp--><rect codeLine="89" fill="#FEFECE" filter="url(#f1dkln5w7v38m5)" height="75.6719" id="IApp" style="stroke:#A80036;stroke-width:1.5;" width="93" x="745.05" y="637"/><ellipse cx="760.05" cy="653" fill="#B4A7E5" rx="11" ry="11" style="stroke:#A80036;stroke-width:1.0;"/><path d="M761.0031,649.6406 L761.0031,656.2969 L762.7219,656.2969 Q763.3313,656.2969 763.5969,656.5313 Q763.8625,656.7656 763.8625,657.1563 Q763.8625,657.5313 763.5969,657.7656 Q763.3313,658 762.7219,658 L757.5813,658 Q756.9719,658 756.7063,657.7656 Q756.4406,657.5313 756.4406,657.1406 Q756.4406,656.7656 756.7063,656.5313 Q756.9719,656.2969 757.5813,656.2969 L759.3,656.2969 L759.3,649.6406 L757.5813,649.6406 Q756.9719,649.6406 756.7063,649.4063 Q756.4406,649.1719 756.4406,648.7813 Q756.4406,648.4063 756.7063,648.1719 Q756.9719,647.9375 757.5813,647.9375 L762.7219,647.9375 Q763.3313,647.9375 763.5969,648.1719 Q763.8625,648.4063 763.8625,648.7813 Q763.8625,649.1719 763.5969,649.4063 Q763.3313,649.6406 762.7219,649.6406 L761.0031,649.6406 Z " fill="#000000"/><text fill="#000000" font-family="sans-serif" font-size="12" font-style="italic" lengthAdjust="spacing" textLength="61" x="774.05" y="657.9102">Application</text><line style="stroke:#A80036;stroke-width:1.5;" x1="746.05" x2="837.05" y1="669" y2="669"/><line style="stroke:#A80036;stroke-width:1.5;" x1="746.05" x2="837.05" y1="677" y2="677"/><text fill="#000000" font-family="sans-serif" font-size="11" font-style="italic" lengthAdjust="spacing" textLength="46" x="751.05" y="692.4189">+Config()</text><text fill="#000000" font-family="sans-serif" font-size="11" font-style="italic" lengthAdjust="spacing" textLength="37" x="751.05" y="706.2549">+Start()</text><!--MD5=[58c39e05e9d6b93642a8ad4b0fb41320]
class AppGraph--><rect codeLine="94" fill="#FEFECE" filter="url(#f1dkln5w7v38m5)" height="89.5078" id="AppGraph" style="stroke:#A80036;stroke-width:1.5;" width="123" x="723.05" y="775"/><ellipse cx="754.25" cy="791" fill="#ADD1B2" rx="11" ry="11" style="stroke:#A80036;stroke-width:1.0;"/><path d="M757.0156,786.875 Q757.1719,786.6563 757.3594,786.5469 Q757.5469,786.4375 757.7656,786.4375 Q758.1406,786.4375 758.375,786.7031 Q758.6094,786.9531 758.6094,787.5625 L758.6094,789.0156 Q758.6094,789.625 758.375,789.8906 Q758.1406,790.1563 757.7656,790.1563 Q757.4219,790.1563 757.2188,789.9531 Q757.0156,789.7656 756.9063,789.25 Q756.8594,788.8906 756.6719,788.7031 Q756.3438,788.3281 755.7344,788.1094 Q755.125,787.8906 754.5,787.8906 Q753.7344,787.8906 753.0938,788.2188 Q752.4688,788.5469 751.9688,789.2969 Q751.4844,790.0469 751.4844,791.0781 L751.4844,792.1719 Q751.4844,793.4063 752.375,794.2344 Q753.2656,795.0469 754.8594,795.0469 Q755.7969,795.0469 756.4531,794.7969 Q756.8438,794.6406 757.2656,794.2031 Q757.5313,793.9375 757.6719,793.8594 Q757.8281,793.7813 758.0313,793.7813 Q758.3594,793.7813 758.6094,794.0469 Q758.875,794.2969 758.875,794.6406 Q758.875,794.9844 758.5313,795.3906 Q758.0313,795.9688 757.2344,796.2969 Q756.1563,796.75 754.8594,796.75 Q753.3438,796.75 752.1406,796.125 Q751.1563,795.625 750.4688,794.5625 Q749.7813,793.4844 749.7813,792.2031 L749.7813,791.0469 Q749.7813,789.7188 750.3906,788.5781 Q751.0156,787.4219 752.1094,786.8125 Q753.2031,786.1875 754.4375,786.1875 Q755.1719,786.1875 755.8125,786.3594 Q756.4688,786.5156 757.0156,786.875 Z " fill="#000000"/><text fill="#000000" font-family="sans-serif" font-size="12" lengthAdjust="spacing" textLength="55" x="771.85" y="795.9102">AppGraph</text><line style="stroke:#A80036;stroke-width:1.5;" x1="724.05" x2="845.05" y1="807" y2="807"/><text fill="#000000" font-family="sans-serif" font-size="11" lengthAdjust="spacing" textLength="95" x="729.05" y="822.4189">config model.Config</text><text fill="#000000" font-family="sans-serif" font-size="11" lengthAdjust="spacing" textLength="111" x="729.05" y="836.2549">manag  model.Manager</text><text fill="#000000" font-family="sans-serif" font-size="11" lengthAdjust="spacing" textLength="35" x="729.05" y="850.0908">gui    UI</text><line style="stroke:#A80036;stroke-width:1.5;" x1="724.05" x2="845.05" y1="856.5078" y2="856.5078"/><!--MD5=[4520fda4e10d4d791ce48fe025810cd4]
class main--><rect codeLine="108" fill="#FEFECE" filter="url(#f1dkln5w7v38m5)" height="75.6719" id="main" style="stroke:#A80036;stroke-width:1.5;" width="74" x="902.55" y="782"/><ellipse cx="923.85" cy="798" fill="#ADD1B2" rx="11" ry="11" style="stroke:#A80036;stroke-width:1.0;"/><path d="M926.6156,793.875 Q926.7719,793.6563 926.9594,793.5469 Q927.1469,793.4375 927.3656,793.4375 Q927.7406,793.4375 927.975,793.7031 Q928.2094,793.9531 928.2094,794.5625 L928.2094,796.0156 Q928.2094,796.625 927.975,796.8906 Q927.7406,797.1563 927.3656,797.1563 Q927.0219,797.1563 926.8187,796.9531 Q926.6156,796.7656 926.5062,796.25 Q926.4594,795.8906 926.2719,795.7031 Q925.9437,795.3281 925.3344,795.1094 Q924.725,794.8906 924.1,794.8906 Q923.3344,794.8906 922.6937,795.2188 Q922.0687,795.5469 921.5687,796.2969 Q921.0844,797.0469 921.0844,798.0781 L921.0844,799.1719 Q921.0844,800.4063 921.975,801.2344 Q922.8656,802.0469 924.4594,802.0469 Q925.3969,802.0469 926.0531,801.7969 Q926.4437,801.6406 926.8656,801.2031 Q927.1312,800.9375 927.2719,800.8594 Q927.4281,800.7813 927.6312,800.7813 Q927.9594,800.7813 928.2094,801.0469 Q928.475,801.2969 928.475,801.6406 Q928.475,801.9844 928.1312,802.3906 Q927.6312,802.9688 926.8344,803.2969 Q925.7562,803.75 924.4594,803.75 Q922.9437,803.75 921.7406,803.125 Q920.7562,802.625 920.0687,801.5625 Q919.3812,800.4844 919.3812,799.2031 L919.3812,798.0469 Q919.3812,796.7188 919.9906,795.5781 Q920.6156,794.4219 921.7094,793.8125 Q922.8031,793.1875 924.0375,793.1875 Q924.7719,793.1875 925.4125,793.3594 Q926.0687,793.5156 926.6156,793.875 Z " fill="#000000"/><text fill="#000000" font-family="sans-serif" font-size="12" lengthAdjust="spacing" textLength="28" x="939.25" y="802.9102">main</text><line style="stroke:#A80036;stroke-width:1.5;" x1="903.55" x2="975.55" y1="814" y2="814"/><line style="stroke:#A80036;stroke-width:1.5;" x1="903.55" x2="975.55" y1="822" y2="822"/><text fill="#000000" font-family="sans-serif" font-size="11" lengthAdjust="spacing" textLength="62" x="908.55" y="837.4189">App.Config()</text><text fill="#000000" font-family="sans-serif" font-size="11" lengthAdjust="spacing" textLength="54" x="908.55" y="851.2549">App.Start()</text><path d="M323.05,6 L323.05,48.7031 A0,0 0 0 0 323.05,48.7031 L404.55,48.7031 L408.55,115.8 L412.55,48.7031 L494.05,48.7031 A0,0 0 0 0 494.05,48.7031 L494.05,16 L484.05,6 L323.05,6 A0,0 0 0 0 323.05,6 " fill="#FBFB77" filter="url(#f1dkln5w7v38m5)" style="stroke:#A80036;stroke-width:1.0;"/><path d="M484.05,6 L484.05,16 L494.05,16 L484.05,6 " fill="#FBFB77" style="stroke:#A80036;stroke-width:1.0;"/><text fill="#000000" font-family="sans-serif" font-size="13" lengthAdjust="spacing" textLength="89" x="329.05" y="24.4951">интерфейс для</text><text fill="#000000" font-family="sans-serif" font-size="13" lengthAdjust="spacing" textLength="146" x="333.05" y="40.8467">управления программой</text><!--MD5=[dca66a35f964da08d604091140aef305]
reverse link IUIBase to IUIFormMain--><path codeLine="34" d="M784.8,197.36 C784.05,197.91 783.3,198.46 782.55,199 C739.32,230.35 688.96,262.79 648.73,287.79 " fill="none" id="IUIBase-backto-IUIFormMain" style="stroke:#A80036;stroke-width:1.0;"/><polygon fill="none" points="780.56,191.79,800.68,185.16,789.08,202.89,780.56,191.79" style="stroke:#A80036;stroke-width:1.0;"/><!--MD5=[94ff16ab80871e65dd5e69437f90f10c]
reverse link IConfig to config--><path codeLine="49" d="M676.95,194.91 C598.78,208.39 381.95,192.15 352.55,207 C315.89,225.51 288.97,265.03 272.91,294.71 " fill="none" id="IConfig-backto-config" style="stroke:#A80036;stroke-width:1.0;"/><polygon fill="none" points="675.28,188.11,696.41,189.71,678.89,201.64,675.28,188.11" style="stroke:#A80036;stroke-width:1.0;"/><!--MD5=[72a735ce0da255ddc18b11f6c06dfd65]
reverse link IGGraph to ggraph--><path codeLine="57" d="M463.46,197.09 C395.29,202.75 229.04,194.57 206.55,207 C172.34,225.91 149.44,265.36 136.31,294.92 " fill="none" id="IGGraph-backto-ggraph" style="stroke:#A80036;stroke-width:1.0;"/><polygon fill="none" points="462.63,190.14,483.39,194.38,464.51,204.01,462.63,190.14" style="stroke:#A80036;stroke-width:1.0;"/><!--MD5=[7d4968295a0b472d9712fa19c5f95d32]
reverse link IManager to manager--><path codeLine="65" d="M348.19,155.01 C259.01,156.46 98.7,165.01 62.55,207 C6,272.68 38.66,318.69 62.55,402 C68.56,422.97 80.64,443.8 92.4,460.68 " fill="none" id="IManager-backto-manager" style="stroke:#A80036;stroke-width:1.0;"/><polygon fill="none" points="348.34,148.01,368.42,154.79,348.5,162.01,348.34,148.01" style="stroke:#A80036;stroke-width:1.0;"/><!--MD5=[25deaaeb11161484db088882374e6275]
link ggraph to manager--><path codeLine="66" d="M122.55,384.4 C122.55,404.57 122.55,448.93 122.55,448.93 " fill="none" id="ggraph-manager" style="stroke:#A80036;stroke-width:1.0;stroke-dasharray:7.0,7.0;"/><polygon fill="#A80036" points="122.55,460.93,126.55,454.93,122.55,448.93,118.55,454.93,122.55,460.93" style="stroke:#A80036;stroke-width:1.0;"/><polygon fill="#A80036" points="122.55,371.21,118.55,380.21,122.55,376.21,126.55,380.21,122.55,371.21" style="stroke:#A80036;stroke-width:1.0;"/><line style="stroke:#A80036;stroke-width:1.0;" x1="122.55" x2="122.55" y1="376.21" y2="384.21"/><!--MD5=[a0777b2b65570c3c29ee0cd9af6c401f]
reverse link IUIFormMain to formain--><path codeLine="77" d="M574.76,398.56 C574.54,417.09 574.3,436.87 574.09,453.87 " fill="none" id="IUIFormMain-backto-formain" style="stroke:#A80036;stroke-width:1.0;"/><polygon fill="none" points="567.77,398.29,575.01,378.38,581.76,398.46,567.77,398.29" style="stroke:#A80036;stroke-width:1.0;"/><!--MD5=[bf4ff1a8d3d61bd586377b9ab7e2614f]
reverse link IGUIFactory to guifactory--><path codeLine="82" d="M968.44,202.33 C916.71,284.62 802.99,457.47 684.55,585 C664.71,606.36 639.93,627.58 619.43,643.93 " fill="none" id="IGUIFactory-backto-guifactory" style="stroke:#A80036;stroke-width:1.0;"/><polygon fill="none" points="962.56,198.53,979.09,185.27,974.44,205.94,962.56,198.53" style="stroke:#A80036;stroke-width:1.0;"/><!--MD5=[1ff2f3fa28d0de388329dd5a5da48239]
reverse link formain to guifactory--><path codeLine="83" d="M575.26,549.56 C576.31,580.01 577.62,618.01 578.51,643.96 " fill="none" id="formain-backto-guifactory" style="stroke:#A80036;stroke-width:1.0;stroke-dasharray:7.0,7.0;"/><polygon fill="#A80036" points="575.08,544.36,571.4168,553.5023,575.2656,549.3566,579.4113,553.2053,575.08,544.36" style="stroke:#A80036;stroke-width:1.0;"/><!--MD5=[6dfa7694d6ed46294fe1bccad381655c]
reverse link IApp to AppGraph--><path codeLine="99" d="M788.74,733.34 C788.07,747.18 787.35,761.75 786.71,774.87 " fill="none" id="IApp-backto-AppGraph" style="stroke:#A80036;stroke-width:1.0;"/><polygon fill="none" points="781.76,732.83,789.73,713.2,795.74,733.52,781.76,732.83" style="stroke:#A80036;stroke-width:1.0;"/><!--MD5=[7c109f771aa6d8510245262c5be3c26c]
link manager to AppGraph--><path codeLine="101" d="M149.22,548.34 C181.37,601.76 240.55,686.05 315.55,730 C381.32,768.54 710.9171,811.1315 710.9171,811.1315 " fill="none" id="manager-AppGraph" style="stroke:#A80036;stroke-width:1.0;stroke-dasharray:7.0,7.0;"/><polygon fill="#A80036" points="722.84,812.49,717.3314,807.8365,710.9171,811.1315,716.4257,815.7851,722.84,812.49" style="stroke:#A80036;stroke-width:1.0;"/><polygon fill="#A80036" points="142.58,537.1,143.7123,546.8835,145.1225,541.4053,150.6008,542.8155,142.58,537.1" style="stroke:#A80036;stroke-width:1.0;"/><line style="stroke:#A80036;stroke-width:1.0;" x1="145.1225" x2="149.19" y1="541.4053" y2="548.295"/><!--MD5=[1046162c5d0e06a6498effdce771e3b9]
link config to AppGraph--><path codeLine="102" d="M267.98,383.96 C291.56,468.25 350.92,638.45 464.55,730 C535.1,786.85 710.9763,814.9786 710.9763,814.9786 " fill="none" id="config-AppGraph" style="stroke:#A80036;stroke-width:1.0;stroke-dasharray:7.0,7.0;"/><polygon fill="#A80036" points="722.92,816.14,717.3353,811.5781,710.9763,814.9786,716.561,819.5405,722.92,816.14" style="stroke:#A80036;stroke-width:1.0;"/><polygon fill="#A80036" points="264.5,371.2,263.0146,380.9362,265.8184,376.0231,270.7315,378.8268,264.5,371.2" style="stroke:#A80036;stroke-width:1.0;"/><line style="stroke:#A80036;stroke-width:1.0;" x1="265.8184" x2="267.92" y1="376.0231" y2="383.74"/><!--MD5=[0aad06732b736850bebeb77871e99fd9]
link guifactory to AppGraph--><path codeLine="103" d="M633.96,713.96 C657.89,730.65 713.0156,769.1079 713.0156,769.1079 " fill="none" id="guifactory-AppGraph" style="stroke:#A80036;stroke-width:1.0;stroke-dasharray:7.0,7.0;"/><polygon fill="#A80036" points="722.86,775.97,720.2251,769.2575,713.0156,769.1079,715.6504,775.8204,722.86,775.97" style="stroke:#A80036;stroke-width:1.0;"/><polygon fill="#A80036" points="623.03,706.33,628.1237,714.7594,627.1311,709.1903,632.7001,708.1977,623.03,706.33" style="stroke:#A80036;stroke-width:1.0;"/><line style="stroke:#A80036;stroke-width:1.0;" x1="627.1311" x2="633.685" y1="709.1903" y2="713.765"/><!--MD5=[d60d615501ae2a1f489478289258ae4b]
link IApp to main--><path codeLine="112" d="M845.24,721.94 C851.15,727.27 857.03,732.7 862.55,738 C873.71,748.7 897.1255,772.8906 897.1255,772.8906 " fill="none" id="IApp-main" style="stroke:#A80036;stroke-width:1.0;"/><polygon fill="#A80036" points="905.37,781.61,904.1542,774.5021,897.1255,772.8906,898.3413,779.9985,905.37,781.61" style="stroke:#A80036;stroke-width:1.0;"/><polygon fill="#A80036" points="835.3,713.08,839.3651,722.0508,839.0355,716.4035,844.6828,716.0739,835.3,713.08" style="stroke:#A80036;stroke-width:1.0;"/><line style="stroke:#A80036;stroke-width:1.0;" x1="839.0355" x2="845.005" y1="716.4035" y2="721.73"/><!--MD5=[3cfb3d53cd194aca1d23aff3c14b4b02]
@startuml
skinparam ClassAttributeIconSize 0

package "model" {

    interface IGGraph as "GGraph" {
        + {abstract} SetSimpleAdjMatrix(AdjMatrix)
        + {abstract} SetDirectedAdjMatrix(AdjMatrix)
        + {abstract} Show()
    }

    interface IConfig as "Config" {
        + {abstract} Load()
        + {abstract} Save()
    }

    interface IManager as "Manager" {
        + {abstract} Init()
        + {abstract} Start()
    }

    interface IUIBase as "UIBase" {
        + {abstract} Show()
    }

    interface IGUIFactory as "GUIFactory"{
        +{abstract}MakeMainWindow() UIFormMain
    }

    interface IUIFormMain as "UIFormMain" {
        +{abstract} model.UIBase
        +{abstract} Init(manag model.Manager)
        +{abstract} SetSimpleAdjMatrix(adm AdjMatrix)
    }
    IUIBase <|- - IUIFormMain 

}

note "интерфейс для\n управления программой" as N1
N1 .. IManager  
    
package "internal" {

    package "config" {
        class config {
            + Load()
            + Save()
        }
    }
    IConfig <|- - config

    package "ggraph" {
        class ggraph{
            + SetAdjMatriz()
            + Show()
        }
    }
    IGGraph  <|- - ggraph

    package "manager" {
        class manager{
            + Init()
            + Start()
        }
    }
    IManager <|- - manager
    ggraph  <..* manager
    
}

package gui as "gui" {

    class formain {
        + Init(manag model.Manager)
        + SetSimpleAdjMatrix(adm AdjMatrix)
        + Show()
    }
    IUIFormMain <|- - formain 
    
    class guifactory {
        + MakeMainWindow() IUIFormMain
    }
    IGUIFactory <|- - guifactory
    formain <.. guifactory
}


package "app" {

    interface IApp as "Application" {
        + {abstract} Config()
        + {abstract} Start()
    }

    class AppGraph{
        config model.Config
	    manag  model.Manager
	    gui    UI
    }
    IApp <|- -AppGraph

    manager <..* AppGraph
    config  <..* AppGraph
    guifactory <..*AppGraph
    
}

package cmd {
    class main {
        App.Config()
        App.Start()
    }
    IApp <- -*main
}

@enduml

PlantUML version 1.2022.0(Tue Jan 11 19:16:42 MSK 2022)
(GPL source distribution)
Java Runtime: OpenJDK Runtime Environment
JVM: OpenJDK 64-Bit Server VM
Default Encoding: Cp1251
Language: ru
Country: RU
--></g></svg>