<?xml version="1.0" encoding="UTF-8" standalone="no"?><svg xmlns="http://www.w3.org/2000/svg" xmlns:xlink="http://www.w3.org/1999/xlink" contentScriptType="application/ecmascript" contentStyleType="text/css" height="895px" preserveAspectRatio="none" style="width:1227px;height:895px;background:#FFFFFF;" version="1.1" viewBox="0 0 1227 895" width="1227px" zoomAndPan="magnify"><defs><filter height="300%" id="fp0rpeph5fs9l" width="300%" x="-1" y="-1"><feGaussianBlur result="blurOut" stdDeviation="2.0"/><feColorMatrix in="blurOut" result="blurOut2" type="matrix" values="0 0 0 0 0 0 0 0 0 0 0 0 0 0 0 0 0 0 .4 0"/><feOffset dx="4.0" dy="4.0" in="blurOut2" result="blurOut3"/><feBlend in="SourceGraphic" in2="blurOut3" mode="normal"/></filter></defs><g><!--MD5=[5d4cd377749310b66bf14896f5cd8d9b]
cluster model--><polygon fill="#FFFFFF" filter="url(#fp0rpeph5fs9l)" points="439.64,73,488.64,73,495.64,96.6094,1210.64,96.6094,1210.64,394,439.64,394,439.64,73" style="stroke:#000000;stroke-width:1.5;"/><line style="stroke:#000000;stroke-width:1.5;" x1="439.64" x2="495.64" y1="96.6094" y2="96.6094"/><text fill="#000000" font-family="sans-serif" font-size="14" font-weight="bold" lengthAdjust="spacing" textLength="43" x="443.64" y="89.5332">model</text><!--MD5=[c27d767109b3913d4718b358a17ad24a]
cluster internal--><polygon fill="#FFFFFF" filter="url(#fp0rpeph5fs9l)" points="41.64,215,101.64,215,108.64,238.6094,415.64,238.6094,415.64,584,41.64,584,41.64,215" style="stroke:#000000;stroke-width:1.5;"/><line style="stroke:#000000;stroke-width:1.5;" x1="41.64" x2="108.64" y1="238.6094" y2="238.6094"/><text fill="#000000" font-family="sans-serif" font-size="14" font-weight="bold" lengthAdjust="spacing" textLength="54" x="45.64" y="231.5332">internal</text><!--MD5=[77140a42179fe8241cde5d77dd05aadc]
cluster config--><polygon fill="#FFFFFF" filter="url(#fp0rpeph5fs9l)" points="293.64,266,343.64,266,350.64,289.6094,391.64,289.6094,391.64,394,293.64,394,293.64,266" style="stroke:#000000;stroke-width:1.5;"/><line style="stroke:#000000;stroke-width:1.5;" x1="293.64" x2="350.64" y1="289.6094" y2="289.6094"/><text fill="#000000" font-family="sans-serif" font-size="14" font-weight="bold" lengthAdjust="spacing" textLength="44" x="297.64" y="282.5332">config</text><!--MD5=[05c08c64fd7074a05f164777cc39d98f]
cluster ggraph--><polygon fill="#FFFFFF" filter="url(#fp0rpeph5fs9l)" points="65.64,259,121.64,259,128.64,282.6094,269.64,282.6094,269.64,401,65.64,401,65.64,259" style="stroke:#000000;stroke-width:1.5;"/><line style="stroke:#000000;stroke-width:1.5;" x1="65.64" x2="128.64" y1="282.6094" y2="282.6094"/><text fill="#000000" font-family="sans-serif" font-size="14" font-weight="bold" lengthAdjust="spacing" textLength="50" x="69.64" y="275.5332">ggraph</text><!--MD5=[10ad930ee69173cd9d3aa754f8a8a48b]
cluster manager--><polygon fill="#FFFFFF" filter="url(#fp0rpeph5fs9l)" points="102.64,432,169.64,432,176.64,455.6094,232.64,455.6094,232.64,560,102.64,560,102.64,432" style="stroke:#000000;stroke-width:1.5;"/><line style="stroke:#000000;stroke-width:1.5;" x1="102.64" x2="176.64" y1="455.6094" y2="455.6094"/><text fill="#000000" font-family="sans-serif" font-size="14" font-weight="bold" lengthAdjust="spacing" textLength="61" x="106.64" y="448.5332">manager</text><!--MD5=[11b63f87f9efce6fda9831b98bfa73ba]
cluster gui--><polygon fill="#FFFFFF" filter="url(#fp0rpeph5fs9l)" points="560.64,425,588.64,425,595.64,448.6094,778.64,448.6094,778.64,729,560.64,729,560.64,425" style="stroke:#000000;stroke-width:1.5;"/><line style="stroke:#000000;stroke-width:1.5;" x1="560.64" x2="595.64" y1="448.6094" y2="448.6094"/><text fill="#000000" font-family="sans-serif" font-size="14" font-weight="bold" lengthAdjust="spacing" textLength="22" x="564.64" y="441.5332">gui</text><!--MD5=[d5ac3844f66b12d9e08170e47495e096]
cluster app--><polygon fill="#FFFFFF" filter="url(#fp0rpeph5fs9l)" points="802.64,608,834.64,608,841.64,631.6094,958.64,631.6094,958.64,888,802.64,888,802.64,608" style="stroke:#000000;stroke-width:1.5;"/><line style="stroke:#000000;stroke-width:1.5;" x1="802.64" x2="841.64" y1="631.6094" y2="631.6094"/><text fill="#000000" font-family="sans-serif" font-size="14" font-weight="bold" lengthAdjust="spacing" textLength="26" x="806.64" y="624.5332">app</text><!--MD5=[d77ae2549ff11ae59699f76b7d8f7963]
cluster cmd--><polygon fill="#FFFFFF" filter="url(#fp0rpeph5fs9l)" points="982.64,753,1017.64,753,1024.64,776.6094,1088.64,776.6094,1088.64,881,982.64,881,982.64,753" style="stroke:#000000;stroke-width:1.5;"/><line style="stroke:#000000;stroke-width:1.5;" x1="982.64" x2="1024.64" y1="776.6094" y2="776.6094"/><text fill="#000000" font-family="sans-serif" font-size="14" font-weight="bold" lengthAdjust="spacing" textLength="29" x="986.64" y="769.5332">cmd</text><!--MD5=[f4a289e24d2a9d194ff345de873cc0fe]
class IGGraph--><rect codeLine="5" fill="#FEFECE" filter="url(#fp0rpeph5fs9l)" height="89.5078" id="IGGraph" style="stroke:#A80036;stroke-width:1.5;" width="178" x="590.64" y="109"/><ellipse cx="653.89" cy="125" fill="#B4A7E5" rx="11" ry="11" style="stroke:#A80036;stroke-width:1.0;"/><path d="M654.8431,121.6406 L654.8431,128.2969 L656.5619,128.2969 Q657.1713,128.2969 657.4369,128.5313 Q657.7025,128.7656 657.7025,129.1563 Q657.7025,129.5313 657.4369,129.7656 Q657.1713,130 656.5619,130 L651.4213,130 Q650.8119,130 650.5463,129.7656 Q650.2806,129.5313 650.2806,129.1406 Q650.2806,128.7656 650.5463,128.5313 Q650.8119,128.2969 651.4213,128.2969 L653.14,128.2969 L653.14,121.6406 L651.4213,121.6406 Q650.8119,121.6406 650.5463,121.4063 Q650.2806,121.1719 650.2806,120.7813 Q650.2806,120.4063 650.5463,120.1719 Q650.8119,119.9375 651.4213,119.9375 L656.5619,119.9375 Q657.1713,119.9375 657.4369,120.1719 Q657.7025,120.4063 657.7025,120.7813 Q657.7025,121.1719 657.4369,121.4063 Q657.1713,121.6406 656.5619,121.6406 L654.8431,121.6406 Z " fill="#000000"/><text fill="#000000" font-family="sans-serif" font-size="12" font-style="italic" lengthAdjust="spacing" textLength="43" x="674.39" y="129.9102">GGraph</text><line style="stroke:#A80036;stroke-width:1.5;" x1="591.64" x2="767.64" y1="141" y2="141"/><line style="stroke:#A80036;stroke-width:1.5;" x1="591.64" x2="767.64" y1="149" y2="149"/><text fill="#000000" font-family="sans-serif" font-size="11" font-style="italic" lengthAdjust="spacing" textLength="158" x="596.64" y="164.4189">+SetSimpleAdjMatrix(AdjMatrix)</text><text fill="#000000" font-family="sans-serif" font-size="11" font-style="italic" lengthAdjust="spacing" textLength="166" x="596.64" y="178.2549">+SetDirectedAdjMatrix(AdjMatrix)</text><text fill="#000000" font-family="sans-serif" font-size="11" font-style="italic" lengthAdjust="spacing" textLength="38" x="596.64" y="192.0908">+Save()</text><!--MD5=[5c0eb67a6a4b471579a32057e208c544]
class IConfig--><rect codeLine="11" fill="#FEFECE" filter="url(#fp0rpeph5fs9l)" height="75.6719" id="IConfig" style="stroke:#A80036;stroke-width:1.5;" width="68" x="803.64" y="116"/><ellipse cx="818.64" cy="132" fill="#B4A7E5" rx="11" ry="11" style="stroke:#A80036;stroke-width:1.0;"/><path d="M819.5931,128.6406 L819.5931,135.2969 L821.3119,135.2969 Q821.9213,135.2969 822.1869,135.5313 Q822.4525,135.7656 822.4525,136.1563 Q822.4525,136.5313 822.1869,136.7656 Q821.9213,137 821.3119,137 L816.1713,137 Q815.5619,137 815.2963,136.7656 Q815.0306,136.5313 815.0306,136.1406 Q815.0306,135.7656 815.2963,135.5313 Q815.5619,135.2969 816.1713,135.2969 L817.89,135.2969 L817.89,128.6406 L816.1713,128.6406 Q815.5619,128.6406 815.2963,128.4063 Q815.0306,128.1719 815.0306,127.7813 Q815.0306,127.4063 815.2963,127.1719 Q815.5619,126.9375 816.1713,126.9375 L821.3119,126.9375 Q821.9213,126.9375 822.1869,127.1719 Q822.4525,127.4063 822.4525,127.7813 Q822.4525,128.1719 822.1869,128.4063 Q821.9213,128.6406 821.3119,128.6406 L819.5931,128.6406 Z " fill="#000000"/><text fill="#000000" font-family="sans-serif" font-size="12" font-style="italic" lengthAdjust="spacing" textLength="36" x="832.64" y="136.9102">Config</text><line style="stroke:#A80036;stroke-width:1.5;" x1="804.64" x2="870.64" y1="148" y2="148"/><line style="stroke:#A80036;stroke-width:1.5;" x1="804.64" x2="870.64" y1="156" y2="156"/><text fill="#000000" font-family="sans-serif" font-size="11" font-style="italic" lengthAdjust="spacing" textLength="38" x="809.64" y="171.4189">+Load()</text><text fill="#000000" font-family="sans-serif" font-size="11" font-style="italic" lengthAdjust="spacing" textLength="38" x="809.64" y="185.2549">+Save()</text><!--MD5=[08857f5f734705466f35c6a4db27ff27]
class IManager--><rect codeLine="16" fill="#FEFECE" filter="url(#fp0rpeph5fs9l)" height="75.6719" id="IManager" style="stroke:#A80036;stroke-width:1.5;" width="100" x="455.64" y="116"/><ellipse cx="479.64" cy="132" fill="#B4A7E5" rx="11" ry="11" style="stroke:#A80036;stroke-width:1.0;"/><path d="M480.5931,128.6406 L480.5931,135.2969 L482.3119,135.2969 Q482.9213,135.2969 483.1869,135.5313 Q483.4525,135.7656 483.4525,136.1563 Q483.4525,136.5313 483.1869,136.7656 Q482.9213,137 482.3119,137 L477.1713,137 Q476.5619,137 476.2963,136.7656 Q476.0306,136.5313 476.0306,136.1406 Q476.0306,135.7656 476.2963,135.5313 Q476.5619,135.2969 477.1713,135.2969 L478.89,135.2969 L478.89,128.6406 L477.1713,128.6406 Q476.5619,128.6406 476.2963,128.4063 Q476.0306,128.1719 476.0306,127.7813 Q476.0306,127.4063 476.2963,127.1719 Q476.5619,126.9375 477.1713,126.9375 L482.3119,126.9375 Q482.9213,126.9375 483.1869,127.1719 Q483.4525,127.4063 483.4525,127.7813 Q483.4525,128.1719 483.1869,128.4063 Q482.9213,128.6406 482.3119,128.6406 L480.5931,128.6406 Z " fill="#000000"/><text fill="#000000" font-family="sans-serif" font-size="12" font-style="italic" lengthAdjust="spacing" textLength="48" x="495.64" y="136.9102">Manager</text><line style="stroke:#A80036;stroke-width:1.5;" x1="456.64" x2="554.64" y1="148" y2="148"/><line style="stroke:#A80036;stroke-width:1.5;" x1="456.64" x2="554.64" y1="156" y2="156"/><text fill="#000000" font-family="sans-serif" font-size="11" font-style="italic" lengthAdjust="spacing" textLength="29" x="461.64" y="171.4189">+Init()</text><text fill="#000000" font-family="sans-serif" font-size="11" font-style="italic" lengthAdjust="spacing" textLength="88" x="461.64" y="185.2549">+Graph() GGraph</text><!--MD5=[7f781f255a26402df669825fb3b0f610]
class IUIBase--><rect codeLine="21" fill="#FEFECE" filter="url(#fp0rpeph5fs9l)" height="61.8359" id="IUIBase" style="stroke:#A80036;stroke-width:1.5;" width="73" x="907.14" y="123"/><ellipse cx="922.14" cy="139" fill="#B4A7E5" rx="11" ry="11" style="stroke:#A80036;stroke-width:1.0;"/><path d="M923.0931,135.6406 L923.0931,142.2969 L924.8119,142.2969 Q925.4213,142.2969 925.6869,142.5313 Q925.9525,142.7656 925.9525,143.1563 Q925.9525,143.5313 925.6869,143.7656 Q925.4213,144 924.8119,144 L919.6713,144 Q919.0619,144 918.7963,143.7656 Q918.5306,143.5313 918.5306,143.1406 Q918.5306,142.7656 918.7963,142.5313 Q919.0619,142.2969 919.6713,142.2969 L921.39,142.2969 L921.39,135.6406 L919.6713,135.6406 Q919.0619,135.6406 918.7963,135.4063 Q918.5306,135.1719 918.5306,134.7813 Q918.5306,134.4063 918.7963,134.1719 Q919.0619,133.9375 919.6713,133.9375 L924.8119,133.9375 Q925.4213,133.9375 925.6869,134.1719 Q925.9525,134.4063 925.9525,134.7813 Q925.9525,135.1719 925.6869,135.4063 Q925.4213,135.6406 924.8119,135.6406 L923.0931,135.6406 Z " fill="#000000"/><text fill="#000000" font-family="sans-serif" font-size="12" font-style="italic" lengthAdjust="spacing" textLength="41" x="936.14" y="143.9102">UIBase</text><line style="stroke:#A80036;stroke-width:1.5;" x1="908.14" x2="979.14" y1="155" y2="155"/><line style="stroke:#A80036;stroke-width:1.5;" x1="908.14" x2="979.14" y1="163" y2="163"/><text fill="#000000" font-family="sans-serif" font-size="11" font-style="italic" lengthAdjust="spacing" textLength="40" x="913.14" y="178.4189">+Show()</text><!--MD5=[77872a3b59ad8c140d848ca9570da5db]
class IGUIFactory--><rect codeLine="25" fill="#FEFECE" filter="url(#fp0rpeph5fs9l)" height="61.8359" id="IGUIFactory" style="stroke:#A80036;stroke-width:1.5;" width="179" x="1015.14" y="123"/><ellipse cx="1069.39" cy="139" fill="#B4A7E5" rx="11" ry="11" style="stroke:#A80036;stroke-width:1.0;"/><path d="M1070.3431,135.6406 L1070.3431,142.2969 L1072.0619,142.2969 Q1072.6712,142.2969 1072.9369,142.5313 Q1073.2025,142.7656 1073.2025,143.1563 Q1073.2025,143.5313 1072.9369,143.7656 Q1072.6712,144 1072.0619,144 L1066.9212,144 Q1066.3119,144 1066.0462,143.7656 Q1065.7806,143.5313 1065.7806,143.1406 Q1065.7806,142.7656 1066.0462,142.5313 Q1066.3119,142.2969 1066.9212,142.2969 L1068.64,142.2969 L1068.64,135.6406 L1066.9212,135.6406 Q1066.3119,135.6406 1066.0462,135.4063 Q1065.7806,135.1719 1065.7806,134.7813 Q1065.7806,134.4063 1066.0462,134.1719 Q1066.3119,133.9375 1066.9212,133.9375 L1072.0619,133.9375 Q1072.6712,133.9375 1072.9369,134.1719 Q1073.2025,134.4063 1073.2025,134.7813 Q1073.2025,135.1719 1072.9369,135.4063 Q1072.6712,135.6406 1072.0619,135.6406 L1070.3431,135.6406 Z " fill="#000000"/><text fill="#000000" font-family="sans-serif" font-size="12" font-style="italic" lengthAdjust="spacing" textLength="62" x="1089.89" y="143.9102">GUIFactory</text><line style="stroke:#A80036;stroke-width:1.5;" x1="1016.14" x2="1193.14" y1="155" y2="155"/><line style="stroke:#A80036;stroke-width:1.5;" x1="1016.14" x2="1193.14" y1="163" y2="163"/><text fill="#000000" font-family="sans-serif" font-size="11" font-style="italic" lengthAdjust="spacing" textLength="167" x="1021.14" y="178.4189">+MakeMainWindow() UIFormMain</text><!--MD5=[a6ef9379d143a55a54761c03b8d7673e]
class IUIFormMain--><rect codeLine="29" fill="#FEFECE" filter="url(#fp0rpeph5fs9l)" height="75.6719" id="IUIFormMain" style="stroke:#A80036;stroke-width:1.5;" width="153" x="673.14" y="302"/><ellipse cx="711.99" cy="318" fill="#B4A7E5" rx="11" ry="11" style="stroke:#A80036;stroke-width:1.0;"/><path d="M712.9431,314.6406 L712.9431,321.2969 L714.6619,321.2969 Q715.2713,321.2969 715.5369,321.5313 Q715.8025,321.7656 715.8025,322.1563 Q715.8025,322.5313 715.5369,322.7656 Q715.2713,323 714.6619,323 L709.5213,323 Q708.9119,323 708.6463,322.7656 Q708.3806,322.5313 708.3806,322.1406 Q708.3806,321.7656 708.6463,321.5313 Q708.9119,321.2969 709.5213,321.2969 L711.24,321.2969 L711.24,314.6406 L709.5213,314.6406 Q708.9119,314.6406 708.6463,314.4063 Q708.3806,314.1719 708.3806,313.7813 Q708.3806,313.4063 708.6463,313.1719 Q708.9119,312.9375 709.5213,312.9375 L714.6619,312.9375 Q715.2713,312.9375 715.5369,313.1719 Q715.8025,313.4063 715.8025,313.7813 Q715.8025,314.1719 715.5369,314.4063 Q715.2713,314.6406 714.6619,314.6406 L712.9431,314.6406 Z " fill="#000000"/><text fill="#000000" font-family="sans-serif" font-size="12" font-style="italic" lengthAdjust="spacing" textLength="68" x="731.29" y="322.9102">UIFormMain</text><line style="stroke:#A80036;stroke-width:1.5;" x1="674.14" x2="825.14" y1="334" y2="334"/><text fill="#000000" font-family="sans-serif" font-size="11" font-style="italic" lengthAdjust="spacing" textLength="74" x="679.14" y="349.4189">+model.UIBase</text><line style="stroke:#A80036;stroke-width:1.5;" x1="674.14" x2="825.14" y1="355.8359" y2="355.8359"/><text fill="#000000" font-family="sans-serif" font-size="11" font-style="italic" lengthAdjust="spacing" textLength="141" x="679.14" y="371.2549">+Init(manag model.Manager)</text><!--MD5=[9a247f74696882179a492ab5ab0ccb2c]
class config--><rect codeLine="43" fill="#FEFECE" filter="url(#fp0rpeph5fs9l)" height="75.6719" id="config" style="stroke:#A80036;stroke-width:1.5;" width="65" x="310.14" y="302"/><ellipse cx="325.14" cy="318" fill="#ADD1B2" rx="11" ry="11" style="stroke:#A80036;stroke-width:1.0;"/><path d="M327.9056,313.875 Q328.0619,313.6563 328.2494,313.5469 Q328.4369,313.4375 328.6556,313.4375 Q329.0306,313.4375 329.265,313.7031 Q329.4994,313.9531 329.4994,314.5625 L329.4994,316.0156 Q329.4994,316.625 329.265,316.8906 Q329.0306,317.1563 328.6556,317.1563 Q328.3119,317.1563 328.1088,316.9531 Q327.9056,316.7656 327.7963,316.25 Q327.7494,315.8906 327.5619,315.7031 Q327.2338,315.3281 326.6244,315.1094 Q326.015,314.8906 325.39,314.8906 Q324.6244,314.8906 323.9838,315.2188 Q323.3588,315.5469 322.8588,316.2969 Q322.3744,317.0469 322.3744,318.0781 L322.3744,319.1719 Q322.3744,320.4063 323.265,321.2344 Q324.1556,322.0469 325.7494,322.0469 Q326.6869,322.0469 327.3431,321.7969 Q327.7338,321.6406 328.1556,321.2031 Q328.4213,320.9375 328.5619,320.8594 Q328.7181,320.7813 328.9213,320.7813 Q329.2494,320.7813 329.4994,321.0469 Q329.765,321.2969 329.765,321.6406 Q329.765,321.9844 329.4213,322.3906 Q328.9213,322.9688 328.1244,323.2969 Q327.0463,323.75 325.7494,323.75 Q324.2338,323.75 323.0306,323.125 Q322.0463,322.625 321.3588,321.5625 Q320.6713,320.4844 320.6713,319.2031 L320.6713,318.0469 Q320.6713,316.7188 321.2806,315.5781 Q321.9056,314.4219 322.9994,313.8125 Q324.0931,313.1875 325.3275,313.1875 Q326.0619,313.1875 326.7025,313.3594 Q327.3588,313.5156 327.9056,313.875 Z " fill="#000000"/><text fill="#000000" font-family="sans-serif" font-size="12" lengthAdjust="spacing" textLength="33" x="339.14" y="322.9102">config</text><line style="stroke:#A80036;stroke-width:1.5;" x1="311.14" x2="374.14" y1="334" y2="334"/><line style="stroke:#A80036;stroke-width:1.5;" x1="311.14" x2="374.14" y1="342" y2="342"/><text fill="#000000" font-family="sans-serif" font-size="11" lengthAdjust="spacing" textLength="38" x="316.14" y="357.4189">+Load()</text><text fill="#000000" font-family="sans-serif" font-size="11" lengthAdjust="spacing" textLength="39" x="316.14" y="371.2549">+Save()</text><!--MD5=[58cc09d5a5e1d3e80b9bec30e18ca822]
class ggraph--><rect codeLine="51" fill="#FEFECE" filter="url(#fp0rpeph5fs9l)" height="89.5078" id="ggraph" style="stroke:#A80036;stroke-width:1.5;" width="172" x="81.64" y="295"/><ellipse cx="143.89" cy="311" fill="#ADD1B2" rx="11" ry="11" style="stroke:#A80036;stroke-width:1.0;"/><path d="M146.6556,306.875 Q146.8119,306.6563 146.9994,306.5469 Q147.1869,306.4375 147.4056,306.4375 Q147.7806,306.4375 148.015,306.7031 Q148.2494,306.9531 148.2494,307.5625 L148.2494,309.0156 Q148.2494,309.625 148.015,309.8906 Q147.7806,310.1563 147.4056,310.1563 Q147.0619,310.1563 146.8588,309.9531 Q146.6556,309.7656 146.5463,309.25 Q146.4994,308.8906 146.3119,308.7031 Q145.9838,308.3281 145.3744,308.1094 Q144.765,307.8906 144.14,307.8906 Q143.3744,307.8906 142.7338,308.2188 Q142.1088,308.5469 141.6088,309.2969 Q141.1244,310.0469 141.1244,311.0781 L141.1244,312.1719 Q141.1244,313.4063 142.015,314.2344 Q142.9056,315.0469 144.4994,315.0469 Q145.4369,315.0469 146.0931,314.7969 Q146.4838,314.6406 146.9056,314.2031 Q147.1713,313.9375 147.3119,313.8594 Q147.4681,313.7813 147.6713,313.7813 Q147.9994,313.7813 148.2494,314.0469 Q148.515,314.2969 148.515,314.6406 Q148.515,314.9844 148.1713,315.3906 Q147.6713,315.9688 146.8744,316.2969 Q145.7963,316.75 144.4994,316.75 Q142.9838,316.75 141.7806,316.125 Q140.7963,315.625 140.1088,314.5625 Q139.4213,313.4844 139.4213,312.2031 L139.4213,311.0469 Q139.4213,309.7188 140.0306,308.5781 Q140.6556,307.4219 141.7494,306.8125 Q142.8431,306.1875 144.0775,306.1875 Q144.8119,306.1875 145.4525,306.3594 Q146.1088,306.5156 146.6556,306.875 Z " fill="#000000"/><text fill="#000000" font-family="sans-serif" font-size="12" lengthAdjust="spacing" textLength="39" x="164.39" y="315.9102">ggraph</text><line style="stroke:#A80036;stroke-width:1.5;" x1="82.64" x2="252.64" y1="327" y2="327"/><line style="stroke:#A80036;stroke-width:1.5;" x1="82.64" x2="252.64" y1="335" y2="335"/><text fill="#000000" font-family="sans-serif" font-size="11" lengthAdjust="spacing" textLength="151" x="87.64" y="350.4189">+SetSimpleAdjMatrix(AdjMatrix)</text><text fill="#000000" font-family="sans-serif" font-size="11" lengthAdjust="spacing" textLength="160" x="87.64" y="364.2549">+SetDirectedAdjMatrix(AdjMatrix)</text><text fill="#000000" font-family="sans-serif" font-size="11" lengthAdjust="spacing" textLength="39" x="87.64" y="378.0908">+Save()</text><!--MD5=[f5e7ee3b479df05c99880ad25cfdce2c]
class manager--><rect codeLine="60" fill="#FEFECE" filter="url(#fp0rpeph5fs9l)" height="75.6719" id="manager" style="stroke:#A80036;stroke-width:1.5;" width="97" x="119.14" y="468"/><ellipse cx="140.89" cy="484" fill="#ADD1B2" rx="11" ry="11" style="stroke:#A80036;stroke-width:1.0;"/><path d="M143.6556,479.875 Q143.8119,479.6563 143.9994,479.5469 Q144.1869,479.4375 144.4056,479.4375 Q144.7806,479.4375 145.015,479.7031 Q145.2494,479.9531 145.2494,480.5625 L145.2494,482.0156 Q145.2494,482.625 145.015,482.8906 Q144.7806,483.1563 144.4056,483.1563 Q144.0619,483.1563 143.8588,482.9531 Q143.6556,482.7656 143.5463,482.25 Q143.4994,481.8906 143.3119,481.7031 Q142.9838,481.3281 142.3744,481.1094 Q141.765,480.8906 141.14,480.8906 Q140.3744,480.8906 139.7338,481.2188 Q139.1088,481.5469 138.6088,482.2969 Q138.1244,483.0469 138.1244,484.0781 L138.1244,485.1719 Q138.1244,486.4063 139.015,487.2344 Q139.9056,488.0469 141.4994,488.0469 Q142.4369,488.0469 143.0931,487.7969 Q143.4838,487.6406 143.9056,487.2031 Q144.1713,486.9375 144.3119,486.8594 Q144.4681,486.7813 144.6713,486.7813 Q144.9994,486.7813 145.2494,487.0469 Q145.515,487.2969 145.515,487.6406 Q145.515,487.9844 145.1713,488.3906 Q144.6713,488.9688 143.8744,489.2969 Q142.7963,489.75 141.4994,489.75 Q139.9838,489.75 138.7806,489.125 Q137.7963,488.625 137.1088,487.5625 Q136.4213,486.4844 136.4213,485.2031 L136.4213,484.0469 Q136.4213,482.7188 137.0306,481.5781 Q137.6556,480.4219 138.7494,479.8125 Q139.8431,479.1875 141.0775,479.1875 Q141.8119,479.1875 142.4525,479.3594 Q143.1088,479.5156 143.6556,479.875 Z " fill="#000000"/><text fill="#000000" font-family="sans-serif" font-size="12" lengthAdjust="spacing" textLength="50" x="156.39" y="488.9102">manager</text><line style="stroke:#A80036;stroke-width:1.5;" x1="120.14" x2="215.14" y1="500" y2="500"/><line style="stroke:#A80036;stroke-width:1.5;" x1="120.14" x2="215.14" y1="508" y2="508"/><text fill="#000000" font-family="sans-serif" font-size="11" lengthAdjust="spacing" textLength="27" x="125.14" y="523.4189">+Init()</text><text fill="#000000" font-family="sans-serif" font-size="11" lengthAdjust="spacing" textLength="85" x="125.14" y="537.2549">+Graph() GGraph</text><!--MD5=[87d3afd39617a341ccb9f5eaf445daba]
class formain--><rect codeLine="72" fill="#FEFECE" filter="url(#fp0rpeph5fs9l)" height="89.5078" id="formain" style="stroke:#A80036;stroke-width:1.5;" width="186" x="576.64" y="461"/><ellipse cx="644.39" cy="477" fill="#ADD1B2" rx="11" ry="11" style="stroke:#A80036;stroke-width:1.0;"/><path d="M647.1556,472.875 Q647.3119,472.6563 647.4994,472.5469 Q647.6869,472.4375 647.9056,472.4375 Q648.2806,472.4375 648.515,472.7031 Q648.7494,472.9531 648.7494,473.5625 L648.7494,475.0156 Q648.7494,475.625 648.515,475.8906 Q648.2806,476.1563 647.9056,476.1563 Q647.5619,476.1563 647.3588,475.9531 Q647.1556,475.7656 647.0463,475.25 Q646.9994,474.8906 646.8119,474.7031 Q646.4838,474.3281 645.8744,474.1094 Q645.265,473.8906 644.64,473.8906 Q643.8744,473.8906 643.2338,474.2188 Q642.6088,474.5469 642.1088,475.2969 Q641.6244,476.0469 641.6244,477.0781 L641.6244,478.1719 Q641.6244,479.4063 642.515,480.2344 Q643.4056,481.0469 644.9994,481.0469 Q645.9369,481.0469 646.5931,480.7969 Q646.9838,480.6406 647.4056,480.2031 Q647.6713,479.9375 647.8119,479.8594 Q647.9681,479.7813 648.1713,479.7813 Q648.4994,479.7813 648.7494,480.0469 Q649.015,480.2969 649.015,480.6406 Q649.015,480.9844 648.6713,481.3906 Q648.1713,481.9688 647.3744,482.2969 Q646.2963,482.75 644.9994,482.75 Q643.4838,482.75 642.2806,482.125 Q641.2963,481.625 640.6088,480.5625 Q639.9213,479.4844 639.9213,478.2031 L639.9213,477.0469 Q639.9213,475.7188 640.5306,474.5781 Q641.1556,473.4219 642.2494,472.8125 Q643.3431,472.1875 644.5775,472.1875 Q645.3119,472.1875 645.9525,472.3594 Q646.6088,472.5156 647.1556,472.875 Z " fill="#000000"/><text fill="#000000" font-family="sans-serif" font-size="12" lengthAdjust="spacing" textLength="42" x="664.89" y="481.9102">formain</text><line style="stroke:#A80036;stroke-width:1.5;" x1="577.64" x2="761.64" y1="493" y2="493"/><line style="stroke:#A80036;stroke-width:1.5;" x1="577.64" x2="761.64" y1="501" y2="501"/><text fill="#000000" font-family="sans-serif" font-size="11" lengthAdjust="spacing" textLength="135" x="582.64" y="516.4189">+Init(manag model.Manager)</text><text fill="#000000" font-family="sans-serif" font-size="11" lengthAdjust="spacing" textLength="174" x="582.64" y="530.2549">+SetSimpleAdjMatrix(adm AdjMatrix)</text><text fill="#000000" font-family="sans-serif" font-size="11" lengthAdjust="spacing" textLength="43" x="582.64" y="544.0908">+Show()</text><!--MD5=[b187e21e14becdfcfc30d8daf3536523]
class guifactory--><rect codeLine="79" fill="#FEFECE" filter="url(#fp0rpeph5fs9l)" height="61.8359" id="guifactory" style="stroke:#A80036;stroke-width:1.5;" width="173" x="589.14" y="651"/><ellipse cx="645.39" cy="667" fill="#ADD1B2" rx="11" ry="11" style="stroke:#A80036;stroke-width:1.0;"/><path d="M648.1556,662.875 Q648.3119,662.6563 648.4994,662.5469 Q648.6869,662.4375 648.9056,662.4375 Q649.2806,662.4375 649.515,662.7031 Q649.7494,662.9531 649.7494,663.5625 L649.7494,665.0156 Q649.7494,665.625 649.515,665.8906 Q649.2806,666.1563 648.9056,666.1563 Q648.5619,666.1563 648.3588,665.9531 Q648.1556,665.7656 648.0463,665.25 Q647.9994,664.8906 647.8119,664.7031 Q647.4838,664.3281 646.8744,664.1094 Q646.265,663.8906 645.64,663.8906 Q644.8744,663.8906 644.2338,664.2188 Q643.6088,664.5469 643.1088,665.2969 Q642.6244,666.0469 642.6244,667.0781 L642.6244,668.1719 Q642.6244,669.4063 643.515,670.2344 Q644.4056,671.0469 645.9994,671.0469 Q646.9369,671.0469 647.5931,670.7969 Q647.9838,670.6406 648.4056,670.2031 Q648.6713,669.9375 648.8119,669.8594 Q648.9681,669.7813 649.1713,669.7813 Q649.4994,669.7813 649.7494,670.0469 Q650.015,670.2969 650.015,670.6406 Q650.015,670.9844 649.6713,671.3906 Q649.1713,671.9688 648.3744,672.2969 Q647.2963,672.75 645.9994,672.75 Q644.4838,672.75 643.2806,672.125 Q642.2963,671.625 641.6088,670.5625 Q640.9213,669.4844 640.9213,668.2031 L640.9213,667.0469 Q640.9213,665.7188 641.5306,664.5781 Q642.1556,663.4219 643.2494,662.8125 Q644.3431,662.1875 645.5775,662.1875 Q646.3119,662.1875 646.9525,662.3594 Q647.6088,662.5156 648.1556,662.875 Z " fill="#000000"/><text fill="#000000" font-family="sans-serif" font-size="12" lengthAdjust="spacing" textLength="52" x="665.89" y="671.9102">guifactory</text><line style="stroke:#A80036;stroke-width:1.5;" x1="590.14" x2="761.14" y1="683" y2="683"/><line style="stroke:#A80036;stroke-width:1.5;" x1="590.14" x2="761.14" y1="691" y2="691"/><text fill="#000000" font-family="sans-serif" font-size="11" lengthAdjust="spacing" textLength="161" x="595.14" y="706.4189">+MakeMainWindow() IUIFormMain</text><!--MD5=[7aeaacdda523a4dadd1ee820c04b2aba]
class IApp--><rect codeLine="89" fill="#FEFECE" filter="url(#fp0rpeph5fs9l)" height="75.6719" id="IApp" style="stroke:#A80036;stroke-width:1.5;" width="93" x="841.14" y="644"/><ellipse cx="856.14" cy="660" fill="#B4A7E5" rx="11" ry="11" style="stroke:#A80036;stroke-width:1.0;"/><path d="M857.0931,656.6406 L857.0931,663.2969 L858.8119,663.2969 Q859.4213,663.2969 859.6869,663.5313 Q859.9525,663.7656 859.9525,664.1563 Q859.9525,664.5313 859.6869,664.7656 Q859.4213,665 858.8119,665 L853.6713,665 Q853.0619,665 852.7963,664.7656 Q852.5306,664.5313 852.5306,664.1406 Q852.5306,663.7656 852.7963,663.5313 Q853.0619,663.2969 853.6713,663.2969 L855.39,663.2969 L855.39,656.6406 L853.6713,656.6406 Q853.0619,656.6406 852.7963,656.4063 Q852.5306,656.1719 852.5306,655.7813 Q852.5306,655.4063 852.7963,655.1719 Q853.0619,654.9375 853.6713,654.9375 L858.8119,654.9375 Q859.4213,654.9375 859.6869,655.1719 Q859.9525,655.4063 859.9525,655.7813 Q859.9525,656.1719 859.6869,656.4063 Q859.4213,656.6406 858.8119,656.6406 L857.0931,656.6406 Z " fill="#000000"/><text fill="#000000" font-family="sans-serif" font-size="12" font-style="italic" lengthAdjust="spacing" textLength="61" x="870.14" y="664.9102">Application</text><line style="stroke:#A80036;stroke-width:1.5;" x1="842.14" x2="933.14" y1="676" y2="676"/><line style="stroke:#A80036;stroke-width:1.5;" x1="842.14" x2="933.14" y1="684" y2="684"/><text fill="#000000" font-family="sans-serif" font-size="11" font-style="italic" lengthAdjust="spacing" textLength="46" x="847.14" y="699.4189">+Config()</text><text fill="#000000" font-family="sans-serif" font-size="11" font-style="italic" lengthAdjust="spacing" textLength="37" x="847.14" y="713.2549">+Start()</text><!--MD5=[58c39e05e9d6b93642a8ad4b0fb41320]
class AppGraph--><rect codeLine="94" fill="#FEFECE" filter="url(#fp0rpeph5fs9l)" height="89.5078" id="AppGraph" style="stroke:#A80036;stroke-width:1.5;" width="123" x="819.14" y="782"/><ellipse cx="850.34" cy="798" fill="#ADD1B2" rx="11" ry="11" style="stroke:#A80036;stroke-width:1.0;"/><path d="M853.1056,793.875 Q853.2619,793.6563 853.4494,793.5469 Q853.6369,793.4375 853.8556,793.4375 Q854.2306,793.4375 854.465,793.7031 Q854.6994,793.9531 854.6994,794.5625 L854.6994,796.0156 Q854.6994,796.625 854.465,796.8906 Q854.2306,797.1563 853.8556,797.1563 Q853.5119,797.1563 853.3088,796.9531 Q853.1056,796.7656 852.9963,796.25 Q852.9494,795.8906 852.7619,795.7031 Q852.4338,795.3281 851.8244,795.1094 Q851.215,794.8906 850.59,794.8906 Q849.8244,794.8906 849.1838,795.2188 Q848.5588,795.5469 848.0588,796.2969 Q847.5744,797.0469 847.5744,798.0781 L847.5744,799.1719 Q847.5744,800.4063 848.465,801.2344 Q849.3556,802.0469 850.9494,802.0469 Q851.8869,802.0469 852.5431,801.7969 Q852.9338,801.6406 853.3556,801.2031 Q853.6213,800.9375 853.7619,800.8594 Q853.9181,800.7813 854.1213,800.7813 Q854.4494,800.7813 854.6994,801.0469 Q854.965,801.2969 854.965,801.6406 Q854.965,801.9844 854.6213,802.3906 Q854.1213,802.9688 853.3244,803.2969 Q852.2463,803.75 850.9494,803.75 Q849.4338,803.75 848.2306,803.125 Q847.2463,802.625 846.5588,801.5625 Q845.8713,800.4844 845.8713,799.2031 L845.8713,798.0469 Q845.8713,796.7188 846.4806,795.5781 Q847.1056,794.4219 848.1994,793.8125 Q849.2931,793.1875 850.5275,793.1875 Q851.2619,793.1875 851.9025,793.3594 Q852.5588,793.5156 853.1056,793.875 Z " fill="#000000"/><text fill="#000000" font-family="sans-serif" font-size="12" lengthAdjust="spacing" textLength="55" x="867.94" y="802.9102">AppGraph</text><line style="stroke:#A80036;stroke-width:1.5;" x1="820.14" x2="941.14" y1="814" y2="814"/><text fill="#000000" font-family="sans-serif" font-size="11" lengthAdjust="spacing" textLength="95" x="825.14" y="829.4189">config model.Config</text><text fill="#000000" font-family="sans-serif" font-size="11" lengthAdjust="spacing" textLength="111" x="825.14" y="843.2549">manag  model.Manager</text><text fill="#000000" font-family="sans-serif" font-size="11" lengthAdjust="spacing" textLength="35" x="825.14" y="857.0908">gui    UI</text><line style="stroke:#A80036;stroke-width:1.5;" x1="820.14" x2="941.14" y1="863.5078" y2="863.5078"/><!--MD5=[4520fda4e10d4d791ce48fe025810cd4]
class main--><rect codeLine="108" fill="#FEFECE" filter="url(#fp0rpeph5fs9l)" height="75.6719" id="main" style="stroke:#A80036;stroke-width:1.5;" width="74" x="998.64" y="789"/><ellipse cx="1019.94" cy="805" fill="#ADD1B2" rx="11" ry="11" style="stroke:#A80036;stroke-width:1.0;"/><path d="M1022.7056,800.875 Q1022.8619,800.6563 1023.0494,800.5469 Q1023.2369,800.4375 1023.4556,800.4375 Q1023.8306,800.4375 1024.065,800.7031 Q1024.2994,800.9531 1024.2994,801.5625 L1024.2994,803.0156 Q1024.2994,803.625 1024.065,803.8906 Q1023.8306,804.1563 1023.4556,804.1563 Q1023.1119,804.1563 1022.9087,803.9531 Q1022.7056,803.7656 1022.5962,803.25 Q1022.5494,802.8906 1022.3619,802.7031 Q1022.0337,802.3281 1021.4244,802.1094 Q1020.815,801.8906 1020.19,801.8906 Q1019.4244,801.8906 1018.7837,802.2188 Q1018.1587,802.5469 1017.6587,803.2969 Q1017.1744,804.0469 1017.1744,805.0781 L1017.1744,806.1719 Q1017.1744,807.4063 1018.065,808.2344 Q1018.9556,809.0469 1020.5494,809.0469 Q1021.4869,809.0469 1022.1431,808.7969 Q1022.5337,808.6406 1022.9556,808.2031 Q1023.2212,807.9375 1023.3619,807.8594 Q1023.5181,807.7813 1023.7212,807.7813 Q1024.0494,807.7813 1024.2994,808.0469 Q1024.565,808.2969 1024.565,808.6406 Q1024.565,808.9844 1024.2213,809.3906 Q1023.7212,809.9688 1022.9244,810.2969 Q1021.8462,810.75 1020.5494,810.75 Q1019.0337,810.75 1017.8306,810.125 Q1016.8462,809.625 1016.1587,808.5625 Q1015.4712,807.4844 1015.4712,806.2031 L1015.4712,805.0469 Q1015.4712,803.7188 1016.0806,802.5781 Q1016.7056,801.4219 1017.7994,800.8125 Q1018.8931,800.1875 1020.1275,800.1875 Q1020.8619,800.1875 1021.5025,800.3594 Q1022.1587,800.5156 1022.7056,800.875 Z " fill="#000000"/><text fill="#000000" font-family="sans-serif" font-size="12" lengthAdjust="spacing" textLength="28" x="1035.34" y="809.9102">main</text><line style="stroke:#A80036;stroke-width:1.5;" x1="999.64" x2="1071.64" y1="821" y2="821"/><line style="stroke:#A80036;stroke-width:1.5;" x1="999.64" x2="1071.64" y1="829" y2="829"/><text fill="#000000" font-family="sans-serif" font-size="11" lengthAdjust="spacing" textLength="62" x="1004.64" y="844.4189">App.Config()</text><text fill="#000000" font-family="sans-serif" font-size="11" lengthAdjust="spacing" textLength="54" x="1004.64" y="858.2549">App.Start()</text><path d="M420.14,6 L420.14,48.7031 A0,0 0 0 0 420.14,48.7031 L501.64,48.7031 L505.64,115.8 L509.64,48.7031 L591.14,48.7031 A0,0 0 0 0 591.14,48.7031 L591.14,16 L581.14,6 L420.14,6 A0,0 0 0 0 420.14,6 " fill="#FBFB77" filter="url(#fp0rpeph5fs9l)" style="stroke:#A80036;stroke-width:1.0;"/><path d="M581.14,6 L581.14,16 L591.14,16 L581.14,6 " fill="#FBFB77" style="stroke:#A80036;stroke-width:1.0;"/><text fill="#000000" font-family="sans-serif" font-size="13" lengthAdjust="spacing" textLength="89" x="426.14" y="24.4951">интерфейс для</text><text fill="#000000" font-family="sans-serif" font-size="13" lengthAdjust="spacing" textLength="146" x="430.14" y="40.8467">управления программой</text><!--MD5=[dca66a35f964da08d604091140aef305]
reverse link IUIBase to IUIFormMain--><path codeLine="33" d="M896.8,199.43 C863.74,230.79 819.95,272.31 788.76,301.9 " fill="none" id="IUIBase-backto-IUIFormMain" style="stroke:#A80036;stroke-width:1.0;"/><polygon fill="none" points="892.28,194.07,911.6,185.38,901.91,204.23,892.28,194.07" style="stroke:#A80036;stroke-width:1.0;"/><!--MD5=[94ff16ab80871e65dd5e69437f90f10c]
reverse link IConfig to config--><path codeLine="48" d="M784.17,194.88 C702.87,208.94 470.77,190.79 439.64,207 C401.05,227.09 373.94,270.32 358.37,301.85 " fill="none" id="IConfig-backto-config" style="stroke:#A80036;stroke-width:1.0;"/><polygon fill="none" points="782.37,188.12,803.5,189.72,785.98,201.64,782.37,188.12" style="stroke:#A80036;stroke-width:1.0;"/><!--MD5=[72a735ce0da255ddc18b11f6c06dfd65]
reverse link IGGraph to ggraph--><path codeLine="57" d="M570.39,197.17 C498.75,203.41 319.04,195.7 293.64,207 C252.39,225.35 218.02,264.17 195.66,294.99 " fill="none" id="IGGraph-backto-ggraph" style="stroke:#A80036;stroke-width:1.0;"/><polygon fill="none" points="569.72,190.2,590.48,194.4,571.63,204.07,569.72,190.2" style="stroke:#A80036;stroke-width:1.0;"/><!--MD5=[7d4968295a0b472d9712fa19c5f95d32]
reverse link IManager to manager--><path codeLine="65" d="M435.35,158.27 C317.31,164.49 89.74,179.88 65.64,207 C6,274.1 30.03,326.59 65.64,409 C76.73,434.67 98.44,456.65 118.99,473.08 " fill="none" id="IManager-backto-manager" style="stroke:#A80036;stroke-width:1.0;"/><polygon fill="none" points="435.02,151.28,455.36,157.25,435.74,165.26,435.02,151.28" style="stroke:#A80036;stroke-width:1.0;"/><!--MD5=[25deaaeb11161484db088882374e6275]
link ggraph to manager--><path codeLine="66" d="M167.64,398.53 C167.64,416.85 167.64,455.8 167.64,455.8 " fill="none" id="ggraph-manager" style="stroke:#A80036;stroke-width:1.0;stroke-dasharray:7.0,7.0;"/><polygon fill="#A80036" points="167.64,467.8,171.64,461.8,167.64,455.8,163.64,461.8,167.64,467.8" style="stroke:#A80036;stroke-width:1.0;"/><polygon fill="#A80036" points="167.64,385.38,163.64,394.38,167.64,390.38,171.64,394.38,167.64,385.38" style="stroke:#A80036;stroke-width:1.0;"/><line style="stroke:#A80036;stroke-width:1.0;" x1="167.64" x2="167.64" y1="390.38" y2="398.38"/><!--MD5=[a0777b2b65570c3c29ee0cd9af6c401f]
reverse link IUIFormMain to formain--><path codeLine="77" d="M722.68,396.26 C712.4,417.34 700.83,441.05 691.13,460.95 " fill="none" id="IUIFormMain-backto-formain" style="stroke:#A80036;stroke-width:1.0;"/><polygon fill="none" points="716.43,393.12,731.49,378.21,729.01,399.26,716.43,393.12" style="stroke:#A80036;stroke-width:1.0;"/><!--MD5=[bf4ff1a8d3d61bd586377b9ab7e2614f]
reverse link IGUIFactory to guifactory--><path codeLine="82" d="M1074.89,202.16 C1021.32,285.33 902.79,461.63 780.64,592 C760.71,613.28 735.93,634.49 715.44,650.86 " fill="none" id="IGUIFactory-backto-guifactory" style="stroke:#A80036;stroke-width:1.0;"/><polygon fill="none" points="1069.08,198.25,1085.76,185.17,1080.87,205.79,1069.08,198.25" style="stroke:#A80036;stroke-width:1.0;"/><!--MD5=[1ff2f3fa28d0de388329dd5a5da48239]
reverse link formain to guifactory--><path codeLine="83" d="M671.35,556.56 C672.4,587.01 673.71,625.01 674.6,650.96 " fill="none" id="formain-backto-guifactory" style="stroke:#A80036;stroke-width:1.0;stroke-dasharray:7.0,7.0;"/><polygon fill="#A80036" points="671.17,551.36,667.5068,560.5023,671.3556,556.3566,675.5013,560.2053,671.17,551.36" style="stroke:#A80036;stroke-width:1.0;"/><!--MD5=[6dfa7694d6ed46294fe1bccad381655c]
reverse link IApp to AppGraph--><path codeLine="99" d="M884.83,740.34 C884.16,754.18 883.44,768.75 882.8,781.87 " fill="none" id="IApp-backto-AppGraph" style="stroke:#A80036;stroke-width:1.0;"/><polygon fill="none" points="877.85,739.83,885.82,720.2,891.83,740.52,877.85,739.83" style="stroke:#A80036;stroke-width:1.0;"/><!--MD5=[7c109f771aa6d8510245262c5be3c26c]
link manager to AppGraph--><path codeLine="101" d="M202.87,554.65 C245.08,608.02 320.92,692.82 406.64,737 C536.19,803.77 807.0684,825.0515 807.0684,825.0515 " fill="none" id="manager-AppGraph" style="stroke:#A80036;stroke-width:1.0;stroke-dasharray:7.0,7.0;"/><polygon fill="#A80036" points="819.06,825.5,813.2137,821.2785,807.0684,825.0515,812.9147,829.2729,819.06,825.5" style="stroke:#A80036;stroke-width:1.0;"/><polygon fill="#A80036" points="194.63,544.09,197.0109,553.6467,197.705,548.0326,203.3191,548.7267,194.63,544.09" style="stroke:#A80036;stroke-width:1.0;"/><line style="stroke:#A80036;stroke-width:1.0;" x1="197.705" x2="202.63" y1="548.0326" y2="554.34"/><!--MD5=[1046162c5d0e06a6498effdce771e3b9]
link config to AppGraph--><path codeLine="102" d="M356.16,390.73 C381.67,474.98 445,645.49 560.64,737 C631.58,793.14 806.9414,821.6677 806.9414,821.6677 " fill="none" id="config-AppGraph" style="stroke:#A80036;stroke-width:1.0;stroke-dasharray:7.0,7.0;"/><polygon fill="#A80036" points="818.88,822.88,813.3148,818.2943,806.9414,821.6677,812.5066,826.2534,818.88,822.88" style="stroke:#A80036;stroke-width:1.0;"/><polygon fill="#A80036" points="352.46,378.22,351.1881,387.9864,353.8836,383.013,358.857,385.7086,352.46,378.22" style="stroke:#A80036;stroke-width:1.0;"/><line style="stroke:#A80036;stroke-width:1.0;" x1="353.8836" x2="356.15" y1="383.013" y2="390.685"/><!--MD5=[0aad06732b736850bebeb77871e99fd9]
link guifactory to AppGraph--><path codeLine="103" d="M730.05,720.96 C753.98,737.65 809.1056,776.1079 809.1056,776.1079 " fill="none" id="guifactory-AppGraph" style="stroke:#A80036;stroke-width:1.0;stroke-dasharray:7.0,7.0;"/><polygon fill="#A80036" points="818.95,782.97,816.3151,776.2575,809.1056,776.1079,811.7404,782.8204,818.95,782.97" style="stroke:#A80036;stroke-width:1.0;"/><polygon fill="#A80036" points="719.12,713.33,724.2137,721.7594,723.2211,716.1903,728.7901,715.1977,719.12,713.33" style="stroke:#A80036;stroke-width:1.0;"/><line style="stroke:#A80036;stroke-width:1.0;" x1="723.2211" x2="729.775" y1="716.1903" y2="720.765"/><!--MD5=[d60d615501ae2a1f489478289258ae4b]
link IApp to main--><path codeLine="112" d="M941.33,728.94 C947.24,734.27 953.12,739.7 958.64,745 C969.8,755.7 993.2155,779.8906 993.2155,779.8906 " fill="none" id="IApp-main" style="stroke:#A80036;stroke-width:1.0;"/><polygon fill="#A80036" points="1001.46,788.61,1000.2442,781.5021,993.2155,779.8906,994.4313,786.9985,1001.46,788.61" style="stroke:#A80036;stroke-width:1.0;"/><polygon fill="#A80036" points="931.39,720.08,935.4551,729.0508,935.1255,723.4035,940.7728,723.0739,931.39,720.08" style="stroke:#A80036;stroke-width:1.0;"/><line style="stroke:#A80036;stroke-width:1.0;" x1="935.1255" x2="941.095" y1="723.4035" y2="728.73"/><!--MD5=[7e44c037abe0043ad49a10a65a6d8084]
@startuml
skinparam ClassAttributeIconSize 0

package "model" {

    interface IGGraph as "GGraph" {
        + {abstract} SetSimpleAdjMatrix(AdjMatrix)
        + {abstract} SetDirectedAdjMatrix(AdjMatrix)
        + {abstract} Save()
    }

    interface IConfig as "Config" {
        + {abstract} Load()
        + {abstract} Save()
    }

    interface IManager as "Manager" {
        + {abstract} Init()
        + {abstract} Graph() GGraph
    }

    interface IUIBase as "UIBase" {
        + {abstract} Show()
    }

    interface IGUIFactory as "GUIFactory"{
        +{abstract}MakeMainWindow() UIFormMain
    }

    interface IUIFormMain as "UIFormMain" {
        +{abstract} model.UIBase
        +{abstract} Init(manag model.Manager)
    }
    IUIBase <|- - IUIFormMain 

}

note "интерфейс для\n управления программой" as N1
N1 .. IManager  
    
package "internal" {

    package "config" {
        class config {
            + Load()
            + Save()
        }
    }
    IConfig <|- - config

    package "ggraph" {
        class ggraph{
            + SetSimpleAdjMatrix(AdjMatrix)
            + SetDirectedAdjMatrix(AdjMatrix)
            + Save()
        }
    }
    IGGraph  <|- - ggraph

    package "manager" {
        class manager{
            + Init()
            + Graph() GGraph
        }
    }
    IManager <|- - manager
    ggraph  <..* manager
    
}

package gui as "gui" {

    class formain {
        + Init(manag model.Manager)
        + SetSimpleAdjMatrix(adm AdjMatrix)
        + Show()
    }
    IUIFormMain <|- - formain 
    
    class guifactory {
        + MakeMainWindow() IUIFormMain
    }
    IGUIFactory <|- - guifactory
    formain <.. guifactory
}


package "app" {

    interface IApp as "Application" {
        + {abstract} Config()
        + {abstract} Start()
    }

    class AppGraph{
        config model.Config
	    manag  model.Manager
	    gui    UI
    }
    IApp <|- -AppGraph

    manager <..* AppGraph
    config  <..* AppGraph
    guifactory <..*AppGraph
    
}

package cmd {
    class main {
        App.Config()
        App.Start()
    }
    IApp <- -*main
}

@enduml

PlantUML version 1.2022.0(Tue Jan 11 19:16:42 MSK 2022)
(GPL source distribution)
Java Runtime: OpenJDK Runtime Environment
JVM: OpenJDK 64-Bit Server VM
Default Encoding: Cp1251
Language: ru
Country: RU
--></g></svg>