<?xml version="1.0" encoding="UTF-8" standalone="no"?><svg xmlns="http://www.w3.org/2000/svg" xmlns:xlink="http://www.w3.org/1999/xlink" contentScriptType="application/ecmascript" contentStyleType="text/css" height="704px" preserveAspectRatio="none" style="width:1019px;height:704px;background:#FFFFFF;" version="1.1" viewBox="0 0 1019 704" width="1019px" zoomAndPan="magnify"><defs><filter height="300%" id="f1c03101rgrg76" width="300%" x="-1" y="-1"><feGaussianBlur result="blurOut" stdDeviation="2.0"/><feColorMatrix in="blurOut" result="blurOut2" type="matrix" values="0 0 0 0 0 0 0 0 0 0 0 0 0 0 0 0 0 0 .4 0"/><feOffset dx="4.0" dy="4.0" in="blurOut2" result="blurOut3"/><feBlend in="SourceGraphic" in2="blurOut3" mode="normal"/></filter></defs><g><!--MD5=[5d4cd377749310b66bf14896f5cd8d9b]
cluster model--><polygon fill="#FFFFFF" filter="url(#f1c03101rgrg76)" points="59.96,137,108.96,137,115.96,160.6094,616.96,160.6094,616.96,279,59.96,279,59.96,137" style="stroke:#000000;stroke-width:1.5;"/><line style="stroke:#000000;stroke-width:1.5;" x1="59.96" x2="115.96" y1="160.6094" y2="160.6094"/><text fill="#000000" font-family="sans-serif" font-size="14" font-weight="bold" lengthAdjust="spacing" textLength="43" x="63.96" y="153.5332">model</text><!--MD5=[d5ac3844f66b12d9e08170e47495e096]
cluster app--><polygon fill="#FFFFFF" filter="url(#f1c03101rgrg76)" points="328.96,555,360.96,555,367.96,578.6094,464.96,578.6094,464.96,697,328.96,697,328.96,555" style="stroke:#000000;stroke-width:1.5;"/><line style="stroke:#000000;stroke-width:1.5;" x1="328.96" x2="367.96" y1="578.6094" y2="578.6094"/><text fill="#000000" font-family="sans-serif" font-size="14" font-weight="bold" lengthAdjust="spacing" textLength="26" x="332.96" y="571.5332">app</text><!--MD5=[c27d767109b3913d4718b358a17ad24a]
cluster internal--><polygon fill="#FFFFFF" filter="url(#f1c03101rgrg76)" points="104.96,303,164.96,303,171.96,326.6094,685.96,326.6094,685.96,531,104.96,531,104.96,303" style="stroke:#000000;stroke-width:1.5;"/><line style="stroke:#000000;stroke-width:1.5;" x1="104.96" x2="171.96" y1="326.6094" y2="326.6094"/><text fill="#000000" font-family="sans-serif" font-size="14" font-weight="bold" lengthAdjust="spacing" textLength="54" x="108.96" y="319.5332">internal</text><!--MD5=[77140a42179fe8241cde5d77dd05aadc]
cluster config--><polygon fill="#FFFFFF" filter="url(#f1c03101rgrg76)" points="136.96,355,186.96,355,193.96,378.6094,269.96,378.6094,269.96,499,136.96,499,136.96,355" style="stroke:#000000;stroke-width:1.5;"/><line style="stroke:#000000;stroke-width:1.5;" x1="136.96" x2="193.96" y1="378.6094" y2="378.6094"/><text fill="#000000" font-family="sans-serif" font-size="14" font-weight="bold" lengthAdjust="spacing" textLength="44" x="140.96" y="371.5332">config</text><!--MD5=[05c08c64fd7074a05f164777cc39d98f]
cluster ggraph--><polygon fill="#FFFFFF" filter="url(#f1c03101rgrg76)" points="309.96,355,365.96,355,372.96,378.6094,464.96,378.6094,464.96,499,309.96,499,309.96,355" style="stroke:#000000;stroke-width:1.5;"/><line style="stroke:#000000;stroke-width:1.5;" x1="309.96" x2="372.96" y1="378.6094" y2="378.6094"/><text fill="#000000" font-family="sans-serif" font-size="14" font-weight="bold" lengthAdjust="spacing" textLength="50" x="313.96" y="371.5332">ggraph</text><!--MD5=[10ad930ee69173cd9d3aa754f8a8a48b]
cluster manager--><polygon fill="#FFFFFF" filter="url(#f1c03101rgrg76)" points="504.96,369,571.96,369,578.96,392.6094,653.96,392.6094,653.96,485,504.96,485,504.96,369" style="stroke:#000000;stroke-width:1.5;"/><line style="stroke:#000000;stroke-width:1.5;" x1="504.96" x2="578.96" y1="392.6094" y2="392.6094"/><text fill="#000000" font-family="sans-serif" font-size="14" font-weight="bold" lengthAdjust="spacing" textLength="61" x="508.96" y="385.5332">manager</text><!--MD5=[64e2e010ba86d7988e5cd73bd64f61f9]
cluster ui--><polygon fill="#FFFFFF" filter="url(#f1c03101rgrg76)" points="664.96,6,683.96,6,690.96,29.6094,1002.96,29.6094,1002.96,113,664.96,113,664.96,6" style="stroke:#000000;stroke-width:1.5;"/><line style="stroke:#000000;stroke-width:1.5;" x1="664.96" x2="690.96" y1="29.6094" y2="29.6094"/><text fill="#000000" font-family="sans-serif" font-size="14" font-weight="bold" lengthAdjust="spacing" textLength="13" x="668.96" y="22.5332">ui</text><!--MD5=[7aeaacdda523a4dadd1ee820c04b2aba]
class IApp--><rect codeLine="4" fill="#FEFECE" filter="url(#f1c03101rgrg76)" height="75.6719" id="IApp" style="stroke:#A80036;stroke-width:1.5;" width="93" x="76.46" y="180"/><ellipse cx="91.46" cy="196" fill="#B4A7E5" rx="11" ry="11" style="stroke:#A80036;stroke-width:1.0;"/><path d="M92.4131,192.6406 L92.4131,199.2969 L94.1319,199.2969 Q94.7413,199.2969 95.0069,199.5313 Q95.2725,199.7656 95.2725,200.1563 Q95.2725,200.5313 95.0069,200.7656 Q94.7413,201 94.1319,201 L88.9913,201 Q88.3819,201 88.1163,200.7656 Q87.8506,200.5313 87.8506,200.1406 Q87.8506,199.7656 88.1163,199.5313 Q88.3819,199.2969 88.9913,199.2969 L90.71,199.2969 L90.71,192.6406 L88.9913,192.6406 Q88.3819,192.6406 88.1163,192.4063 Q87.8506,192.1719 87.8506,191.7813 Q87.8506,191.4063 88.1163,191.1719 Q88.3819,190.9375 88.9913,190.9375 L94.1319,190.9375 Q94.7413,190.9375 95.0069,191.1719 Q95.2725,191.4063 95.2725,191.7813 Q95.2725,192.1719 95.0069,192.4063 Q94.7413,192.6406 94.1319,192.6406 L92.4131,192.6406 Z " fill="#000000"/><text fill="#000000" font-family="sans-serif" font-size="12" font-style="italic" lengthAdjust="spacing" textLength="61" x="105.46" y="200.9102">Application</text><line style="stroke:#A80036;stroke-width:1.5;" x1="77.46" x2="168.46" y1="212" y2="212"/><line style="stroke:#A80036;stroke-width:1.5;" x1="77.46" x2="168.46" y1="220" y2="220"/><text fill="#000000" font-family="sans-serif" font-size="11" font-style="italic" lengthAdjust="spacing" textLength="46" x="82.46" y="235.4189">+Config()</text><text fill="#000000" font-family="sans-serif" font-size="11" font-style="italic" lengthAdjust="spacing" textLength="37" x="82.46" y="249.2549">+Start()</text><!--MD5=[5c0eb67a6a4b471579a32057e208c544]
class IConfig--><rect codeLine="9" fill="#FEFECE" filter="url(#f1c03101rgrg76)" height="75.6719" id="IConfig" style="stroke:#A80036;stroke-width:1.5;" width="68" x="204.96" y="180"/><ellipse cx="219.96" cy="196" fill="#B4A7E5" rx="11" ry="11" style="stroke:#A80036;stroke-width:1.0;"/><path d="M220.9131,192.6406 L220.9131,199.2969 L222.6319,199.2969 Q223.2413,199.2969 223.5069,199.5313 Q223.7725,199.7656 223.7725,200.1563 Q223.7725,200.5313 223.5069,200.7656 Q223.2413,201 222.6319,201 L217.4913,201 Q216.8819,201 216.6163,200.7656 Q216.3506,200.5313 216.3506,200.1406 Q216.3506,199.7656 216.6163,199.5313 Q216.8819,199.2969 217.4913,199.2969 L219.21,199.2969 L219.21,192.6406 L217.4913,192.6406 Q216.8819,192.6406 216.6163,192.4063 Q216.3506,192.1719 216.3506,191.7813 Q216.3506,191.4063 216.6163,191.1719 Q216.8819,190.9375 217.4913,190.9375 L222.6319,190.9375 Q223.2413,190.9375 223.5069,191.1719 Q223.7725,191.4063 223.7725,191.7813 Q223.7725,192.1719 223.5069,192.4063 Q223.2413,192.6406 222.6319,192.6406 L220.9131,192.6406 Z " fill="#000000"/><text fill="#000000" font-family="sans-serif" font-size="12" font-style="italic" lengthAdjust="spacing" textLength="36" x="233.96" y="200.9102">Config</text><line style="stroke:#A80036;stroke-width:1.5;" x1="205.96" x2="271.96" y1="212" y2="212"/><line style="stroke:#A80036;stroke-width:1.5;" x1="205.96" x2="271.96" y1="220" y2="220"/><text fill="#000000" font-family="sans-serif" font-size="11" font-style="italic" lengthAdjust="spacing" textLength="38" x="210.96" y="235.4189">+Load()</text><text fill="#000000" font-family="sans-serif" font-size="11" font-style="italic" lengthAdjust="spacing" textLength="38" x="210.96" y="249.2549">+Save()</text><!--MD5=[f4a289e24d2a9d194ff345de873cc0fe]
class IGGraph--><rect codeLine="14" fill="#FEFECE" filter="url(#f1c03101rgrg76)" height="89.5078" id="IGGraph" style="stroke:#A80036;stroke-width:1.5;" width="178" x="307.96" y="173"/><ellipse cx="371.21" cy="189" fill="#B4A7E5" rx="11" ry="11" style="stroke:#A80036;stroke-width:1.0;"/><path d="M372.1631,185.6406 L372.1631,192.2969 L373.8819,192.2969 Q374.4913,192.2969 374.7569,192.5313 Q375.0225,192.7656 375.0225,193.1563 Q375.0225,193.5313 374.7569,193.7656 Q374.4913,194 373.8819,194 L368.7413,194 Q368.1319,194 367.8663,193.7656 Q367.6006,193.5313 367.6006,193.1406 Q367.6006,192.7656 367.8663,192.5313 Q368.1319,192.2969 368.7413,192.2969 L370.46,192.2969 L370.46,185.6406 L368.7413,185.6406 Q368.1319,185.6406 367.8663,185.4063 Q367.6006,185.1719 367.6006,184.7813 Q367.6006,184.4063 367.8663,184.1719 Q368.1319,183.9375 368.7413,183.9375 L373.8819,183.9375 Q374.4913,183.9375 374.7569,184.1719 Q375.0225,184.4063 375.0225,184.7813 Q375.0225,185.1719 374.7569,185.4063 Q374.4913,185.6406 373.8819,185.6406 L372.1631,185.6406 Z " fill="#000000"/><text fill="#000000" font-family="sans-serif" font-size="12" font-style="italic" lengthAdjust="spacing" textLength="43" x="391.71" y="193.9102">GGraph</text><line style="stroke:#A80036;stroke-width:1.5;" x1="308.96" x2="484.96" y1="205" y2="205"/><line style="stroke:#A80036;stroke-width:1.5;" x1="308.96" x2="484.96" y1="213" y2="213"/><text fill="#000000" font-family="sans-serif" font-size="11" font-style="italic" lengthAdjust="spacing" textLength="158" x="313.96" y="228.4189">+SetSimpleAdjMatriz(AdjMatrix)</text><text fill="#000000" font-family="sans-serif" font-size="11" font-style="italic" lengthAdjust="spacing" textLength="166" x="313.96" y="242.2549">+SetDirectedAdjMatriz(AdjMatrix)</text><text fill="#000000" font-family="sans-serif" font-size="11" font-style="italic" lengthAdjust="spacing" textLength="40" x="313.96" y="256.0908">+Show()</text><!--MD5=[08857f5f734705466f35c6a4db27ff27]
class IManager--><rect codeLine="20" fill="#FEFECE" filter="url(#f1c03101rgrg76)" height="75.6719" id="IManager" style="stroke:#A80036;stroke-width:1.5;" width="80" x="520.96" y="180"/><ellipse cx="535.96" cy="196" fill="#B4A7E5" rx="11" ry="11" style="stroke:#A80036;stroke-width:1.0;"/><path d="M536.9131,192.6406 L536.9131,199.2969 L538.6319,199.2969 Q539.2413,199.2969 539.5069,199.5313 Q539.7725,199.7656 539.7725,200.1563 Q539.7725,200.5313 539.5069,200.7656 Q539.2413,201 538.6319,201 L533.4913,201 Q532.8819,201 532.6163,200.7656 Q532.3506,200.5313 532.3506,200.1406 Q532.3506,199.7656 532.6163,199.5313 Q532.8819,199.2969 533.4913,199.2969 L535.21,199.2969 L535.21,192.6406 L533.4913,192.6406 Q532.8819,192.6406 532.6163,192.4063 Q532.3506,192.1719 532.3506,191.7813 Q532.3506,191.4063 532.6163,191.1719 Q532.8819,190.9375 533.4913,190.9375 L538.6319,190.9375 Q539.2413,190.9375 539.5069,191.1719 Q539.7725,191.4063 539.7725,191.7813 Q539.7725,192.1719 539.5069,192.4063 Q539.2413,192.6406 538.6319,192.6406 L536.9131,192.6406 Z " fill="#000000"/><text fill="#000000" font-family="sans-serif" font-size="12" font-style="italic" lengthAdjust="spacing" textLength="48" x="549.96" y="200.9102">Manager</text><line style="stroke:#A80036;stroke-width:1.5;" x1="521.96" x2="599.96" y1="212" y2="212"/><line style="stroke:#A80036;stroke-width:1.5;" x1="521.96" x2="599.96" y1="220" y2="220"/><text fill="#000000" font-family="sans-serif" font-size="11" font-style="italic" lengthAdjust="spacing" textLength="29" x="526.96" y="235.4189">+Init()</text><text fill="#000000" font-family="sans-serif" font-size="11" font-style="italic" lengthAdjust="spacing" textLength="37" x="526.96" y="249.2549">+Start()</text><!--MD5=[58c39e05e9d6b93642a8ad4b0fb41320]
class AppGraph--><rect codeLine="30" fill="#FEFECE" filter="url(#f1c03101rgrg76)" height="89.5078" id="AppGraph" style="stroke:#A80036;stroke-width:1.5;" width="103" x="345.46" y="591"/><ellipse cx="367.66" cy="607" fill="#ADD1B2" rx="11" ry="11" style="stroke:#A80036;stroke-width:1.0;"/><path d="M370.4256,602.875 Q370.5819,602.6563 370.7694,602.5469 Q370.9569,602.4375 371.1756,602.4375 Q371.5506,602.4375 371.785,602.7031 Q372.0194,602.9531 372.0194,603.5625 L372.0194,605.0156 Q372.0194,605.625 371.785,605.8906 Q371.5506,606.1563 371.1756,606.1563 Q370.8319,606.1563 370.6288,605.9531 Q370.4256,605.7656 370.3163,605.25 Q370.2694,604.8906 370.0819,604.7031 Q369.7538,604.3281 369.1444,604.1094 Q368.535,603.8906 367.91,603.8906 Q367.1444,603.8906 366.5038,604.2188 Q365.8788,604.5469 365.3788,605.2969 Q364.8944,606.0469 364.8944,607.0781 L364.8944,608.1719 Q364.8944,609.4063 365.785,610.2344 Q366.6756,611.0469 368.2694,611.0469 Q369.2069,611.0469 369.8631,610.7969 Q370.2538,610.6406 370.6756,610.2031 Q370.9413,609.9375 371.0819,609.8594 Q371.2381,609.7813 371.4413,609.7813 Q371.7694,609.7813 372.0194,610.0469 Q372.285,610.2969 372.285,610.6406 Q372.285,610.9844 371.9413,611.3906 Q371.4413,611.9688 370.6444,612.2969 Q369.5663,612.75 368.2694,612.75 Q366.7538,612.75 365.5506,612.125 Q364.5663,611.625 363.8788,610.5625 Q363.1913,609.4844 363.1913,608.2031 L363.1913,607.0469 Q363.1913,605.7188 363.8006,604.5781 Q364.4256,603.4219 365.5194,602.8125 Q366.6131,602.1875 367.8475,602.1875 Q368.5819,602.1875 369.2225,602.3594 Q369.8788,602.5156 370.4256,602.875 Z " fill="#000000"/><text fill="#000000" font-family="sans-serif" font-size="12" lengthAdjust="spacing" textLength="55" x="383.26" y="611.9102">AppGraph</text><line style="stroke:#A80036;stroke-width:1.5;" x1="346.46" x2="447.46" y1="623" y2="623"/><text fill="#000000" font-family="sans-serif" font-size="11" lengthAdjust="spacing" textLength="71" x="351.46" y="638.4189">-Config  сonfig</text><text fill="#000000" font-family="sans-serif" font-size="11" lengthAdjust="spacing" textLength="91" x="351.46" y="652.2549">-Manager manager</text><text fill="#000000" font-family="sans-serif" font-size="11" lengthAdjust="spacing" textLength="73" x="351.46" y="666.0908">-GGraph graph</text><line style="stroke:#A80036;stroke-width:1.5;" x1="346.46" x2="447.46" y1="672.5078" y2="672.5078"/><!--MD5=[9a247f74696882179a492ab5ab0ccb2c]
class config--><rect codeLine="48" fill="#FEFECE" filter="url(#f1c03101rgrg76)" height="75.6719" id="config" style="stroke:#A80036;stroke-width:1.5;" width="65" x="180.46" y="399"/><ellipse cx="195.46" cy="415" fill="#ADD1B2" rx="11" ry="11" style="stroke:#A80036;stroke-width:1.0;"/><path d="M198.2256,410.875 Q198.3819,410.6563 198.5694,410.5469 Q198.7569,410.4375 198.9756,410.4375 Q199.3506,410.4375 199.585,410.7031 Q199.8194,410.9531 199.8194,411.5625 L199.8194,413.0156 Q199.8194,413.625 199.585,413.8906 Q199.3506,414.1563 198.9756,414.1563 Q198.6319,414.1563 198.4288,413.9531 Q198.2256,413.7656 198.1163,413.25 Q198.0694,412.8906 197.8819,412.7031 Q197.5538,412.3281 196.9444,412.1094 Q196.335,411.8906 195.71,411.8906 Q194.9444,411.8906 194.3038,412.2188 Q193.6788,412.5469 193.1788,413.2969 Q192.6944,414.0469 192.6944,415.0781 L192.6944,416.1719 Q192.6944,417.4063 193.585,418.2344 Q194.4756,419.0469 196.0694,419.0469 Q197.0069,419.0469 197.6631,418.7969 Q198.0538,418.6406 198.4756,418.2031 Q198.7413,417.9375 198.8819,417.8594 Q199.0381,417.7813 199.2413,417.7813 Q199.5694,417.7813 199.8194,418.0469 Q200.085,418.2969 200.085,418.6406 Q200.085,418.9844 199.7413,419.3906 Q199.2413,419.9688 198.4444,420.2969 Q197.3663,420.75 196.0694,420.75 Q194.5538,420.75 193.3506,420.125 Q192.3663,419.625 191.6788,418.5625 Q190.9913,417.4844 190.9913,416.2031 L190.9913,415.0469 Q190.9913,413.7188 191.6006,412.5781 Q192.2256,411.4219 193.3194,410.8125 Q194.4131,410.1875 195.6475,410.1875 Q196.3819,410.1875 197.0225,410.3594 Q197.6788,410.5156 198.2256,410.875 Z " fill="#000000"/><text fill="#000000" font-family="sans-serif" font-size="12" lengthAdjust="spacing" textLength="33" x="209.46" y="419.9102">config</text><line style="stroke:#A80036;stroke-width:1.5;" x1="181.46" x2="244.46" y1="431" y2="431"/><line style="stroke:#A80036;stroke-width:1.5;" x1="181.46" x2="244.46" y1="439" y2="439"/><text fill="#000000" font-family="sans-serif" font-size="11" lengthAdjust="spacing" textLength="38" x="186.46" y="454.4189">+Load()</text><text fill="#000000" font-family="sans-serif" font-size="11" lengthAdjust="spacing" textLength="39" x="186.46" y="468.2549">+Save()</text><!--MD5=[58cc09d5a5e1d3e80b9bec30e18ca822]
class ggraph--><rect codeLine="56" fill="#FEFECE" filter="url(#f1c03101rgrg76)" height="75.6719" id="ggraph" style="stroke:#A80036;stroke-width:1.5;" width="87" x="353.46" y="399"/><ellipse cx="375.66" cy="415" fill="#ADD1B2" rx="11" ry="11" style="stroke:#A80036;stroke-width:1.0;"/><path d="M378.4256,410.875 Q378.5819,410.6563 378.7694,410.5469 Q378.9569,410.4375 379.1756,410.4375 Q379.5506,410.4375 379.785,410.7031 Q380.0194,410.9531 380.0194,411.5625 L380.0194,413.0156 Q380.0194,413.625 379.785,413.8906 Q379.5506,414.1563 379.1756,414.1563 Q378.8319,414.1563 378.6288,413.9531 Q378.4256,413.7656 378.3163,413.25 Q378.2694,412.8906 378.0819,412.7031 Q377.7538,412.3281 377.1444,412.1094 Q376.535,411.8906 375.91,411.8906 Q375.1444,411.8906 374.5038,412.2188 Q373.8788,412.5469 373.3788,413.2969 Q372.8944,414.0469 372.8944,415.0781 L372.8944,416.1719 Q372.8944,417.4063 373.785,418.2344 Q374.6756,419.0469 376.2694,419.0469 Q377.2069,419.0469 377.8631,418.7969 Q378.2538,418.6406 378.6756,418.2031 Q378.9413,417.9375 379.0819,417.8594 Q379.2381,417.7813 379.4413,417.7813 Q379.7694,417.7813 380.0194,418.0469 Q380.285,418.2969 380.285,418.6406 Q380.285,418.9844 379.9413,419.3906 Q379.4413,419.9688 378.6444,420.2969 Q377.5663,420.75 376.2694,420.75 Q374.7538,420.75 373.5506,420.125 Q372.5663,419.625 371.8788,418.5625 Q371.1913,417.4844 371.1913,416.2031 L371.1913,415.0469 Q371.1913,413.7188 371.8006,412.5781 Q372.4256,411.4219 373.5194,410.8125 Q374.6131,410.1875 375.8475,410.1875 Q376.5819,410.1875 377.2225,410.3594 Q377.8788,410.5156 378.4256,410.875 Z " fill="#000000"/><text fill="#000000" font-family="sans-serif" font-size="12" lengthAdjust="spacing" textLength="39" x="391.26" y="419.9102">ggraph</text><line style="stroke:#A80036;stroke-width:1.5;" x1="354.46" x2="439.46" y1="431" y2="431"/><line style="stroke:#A80036;stroke-width:1.5;" x1="354.46" x2="439.46" y1="439" y2="439"/><text fill="#000000" font-family="sans-serif" font-size="11" lengthAdjust="spacing" textLength="75" x="359.46" y="454.4189">+SetAdjMatriz()</text><text fill="#000000" font-family="sans-serif" font-size="11" lengthAdjust="spacing" textLength="43" x="359.46" y="468.2549">+Show()</text><!--MD5=[f5e7ee3b479df05c99880ad25cfdce2c]
class manager--><rect codeLine="64" fill="#FEFECE" filter="url(#f1c03101rgrg76)" height="48" id="manager" style="stroke:#A80036;stroke-width:1.5;" width="82" x="547.96" y="413"/><ellipse cx="562.96" cy="429" fill="#ADD1B2" rx="11" ry="11" style="stroke:#A80036;stroke-width:1.0;"/><path d="M565.7256,424.875 Q565.8819,424.6563 566.0694,424.5469 Q566.2569,424.4375 566.4756,424.4375 Q566.8506,424.4375 567.085,424.7031 Q567.3194,424.9531 567.3194,425.5625 L567.3194,427.0156 Q567.3194,427.625 567.085,427.8906 Q566.8506,428.1563 566.4756,428.1563 Q566.1319,428.1563 565.9287,427.9531 Q565.7256,427.7656 565.6162,427.25 Q565.5694,426.8906 565.3819,426.7031 Q565.0537,426.3281 564.4444,426.1094 Q563.835,425.8906 563.21,425.8906 Q562.4444,425.8906 561.8037,426.2188 Q561.1787,426.5469 560.6787,427.2969 Q560.1944,428.0469 560.1944,429.0781 L560.1944,430.1719 Q560.1944,431.4063 561.085,432.2344 Q561.9756,433.0469 563.5694,433.0469 Q564.5069,433.0469 565.1631,432.7969 Q565.5537,432.6406 565.9756,432.2031 Q566.2412,431.9375 566.3819,431.8594 Q566.5381,431.7813 566.7412,431.7813 Q567.0694,431.7813 567.3194,432.0469 Q567.585,432.2969 567.585,432.6406 Q567.585,432.9844 567.2412,433.3906 Q566.7412,433.9688 565.9444,434.2969 Q564.8662,434.75 563.5694,434.75 Q562.0537,434.75 560.8506,434.125 Q559.8662,433.625 559.1787,432.5625 Q558.4912,431.4844 558.4912,430.2031 L558.4912,429.0469 Q558.4912,427.7188 559.1006,426.5781 Q559.7256,425.4219 560.8194,424.8125 Q561.9131,424.1875 563.1475,424.1875 Q563.8819,424.1875 564.5225,424.3594 Q565.1787,424.5156 565.7256,424.875 Z " fill="#000000"/><text fill="#000000" font-family="sans-serif" font-size="12" lengthAdjust="spacing" textLength="50" x="576.96" y="433.9102">manager</text><line style="stroke:#A80036;stroke-width:1.5;" x1="548.96" x2="628.96" y1="445" y2="445"/><line style="stroke:#A80036;stroke-width:1.5;" x1="548.96" x2="628.96" y1="453" y2="453"/><polygon fill="#FFFFFF" filter="url(#f1c03101rgrg76)" points="905.46,42,972.46,42,979.46,65.6094,986.46,65.6094,986.46,97.2188,905.46,97.2188,905.46,42" style="stroke:#000000;stroke-width:1.5;"/><line style="stroke:#000000;stroke-width:1.5;" x1="905.46" x2="979.46" y1="65.6094" y2="65.6094"/><text fill="#000000" font-family="sans-serif" font-size="14" font-weight="bold" lengthAdjust="spacing" textLength="61" x="909.46" y="58.5332">factoryui</text><polygon fill="#FFFFFF" filter="url(#f1c03101rgrg76)" points="793.46,42,856.46,42,863.46,65.6094,870.46,65.6094,870.46,97.2188,793.46,97.2188,793.46,42" style="stroke:#000000;stroke-width:1.5;"/><line style="stroke:#000000;stroke-width:1.5;" x1="793.46" x2="863.46" y1="65.6094" y2="65.6094"/><text fill="#000000" font-family="sans-serif" font-size="14" font-weight="bold" lengthAdjust="spacing" textLength="57" x="797.46" y="58.5332">terminal</text><polygon fill="#FFFFFF" filter="url(#f1c03101rgrg76)" points="681.46,42,744.46,42,751.46,65.6094,758.46,65.6094,758.46,97.2188,681.46,97.2188,681.46,42" style="stroke:#000000;stroke-width:1.5;"/><line style="stroke:#000000;stroke-width:1.5;" x1="681.46" x2="751.46" y1="65.6094" y2="65.6094"/><text fill="#000000" font-family="sans-serif" font-size="14" font-weight="bold" lengthAdjust="spacing" textLength="57" x="685.46" y="58.5332">desktop</text><path d="M475.46,48 L475.46,90.7031 A0,0 0 0 0 475.46,90.7031 L556.96,90.7031 L560.96,179.74 L564.96,90.7031 L646.46,90.7031 A0,0 0 0 0 646.46,90.7031 L646.46,58 L636.46,48 L475.46,48 A0,0 0 0 0 475.46,48 " fill="#FBFB77" filter="url(#f1c03101rgrg76)" style="stroke:#A80036;stroke-width:1.0;"/><path d="M636.46,48 L636.46,58 L646.46,58 L636.46,48 " fill="#FBFB77" style="stroke:#A80036;stroke-width:1.0;"/><text fill="#000000" font-family="sans-serif" font-size="13" lengthAdjust="spacing" textLength="89" x="481.46" y="66.4951">интерфейс для</text><text fill="#000000" font-family="sans-serif" font-size="13" lengthAdjust="spacing" textLength="146" x="485.46" y="82.8467">управления программой</text><!--MD5=[6dfa7694d6ed46294fe1bccad381655c]
reverse link IApp to AppGraph--><path codeLine="35" d="M80.37,273.24 C76.54,280.26 73.25,287.59 70.96,295 C38.91,398.6 6,452.16 70.96,539 C103.91,583.06 261.87,613.87 345.21,627.36 " fill="none" id="IApp-backto-AppGraph" style="stroke:#A80036;stroke-width:1.0;"/><polygon fill="none" points="74.55,269.34,91.08,256.09,86.43,276.76,74.55,269.34" style="stroke:#A80036;stroke-width:1.0;"/><!--MD5=[3472a1844e59a90a1c4a8eb28b2e7266]
link IConfig to AppGraph--><path codeLine="36" d="M210.61,266.37 C203.82,274.39 195.89,281.79 186.96,287 C164.47,300.1 146.05,275.38 128.96,295 C57.7,376.75 66.53,450.33 128.96,539 C174.71,603.99 333.4637,632.116 333.4637,632.116 " fill="none" id="IConfig-AppGraph" style="stroke:#A80036;stroke-width:1.0;"/><polygon fill="#A80036" points="345.41,633.25,339.8148,628.7009,333.4637,632.116,339.0589,636.6651,345.41,633.25" style="stroke:#A80036;stroke-width:1.0;"/><polygon fill="#A80036" points="218.62,256,209.9565,260.6843,215.5667,259.9594,216.2916,265.5697,218.62,256" style="stroke:#A80036;stroke-width:1.0;"/><line style="stroke:#A80036;stroke-width:1.0;" x1="215.5667" x2="210.675" y1="259.9594" y2="266.29"/><!--MD5=[ad8319bdeaabb2ef42a490f5222bbac2]
link IManager to AppGraph--><path codeLine="37" d="M613.57,233.74 C643.7,245.18 678.99,264.38 696.96,295 C751.83,388.53 760.89,451.41 696.96,539 C643.34,612.45 460.7178,635.0093 460.7178,635.0093 " fill="none" id="IManager-AppGraph" style="stroke:#A80036;stroke-width:1.0;"/><polygon fill="#A80036" points="448.73,635.55,454.9041,639.2756,460.7178,635.0093,454.5437,631.2837,448.73,635.55" style="stroke:#A80036;stroke-width:1.0;"/><polygon fill="#A80036" points="601.04,229.3,608.1874,236.0761,605.7529,230.9698,610.8591,228.5354,601.04,229.3" style="stroke:#A80036;stroke-width:1.0;"/><line style="stroke:#A80036;stroke-width:1.0;" x1="605.7529" x2="613.29" y1="230.9698" y2="233.64"/><!--MD5=[72366436df8e21f3744b3e3dd600e3f1]
link IGGraph to AppGraph--><path codeLine="38" d="M465.93,269.85 C478.09,276.73 491.01,282.84 503.96,287 C519,291.84 635.1,283.52 645.96,295 C720.45,373.81 707.31,449.58 645.96,539 C604.83,598.93 460.5003,630.0664 460.5003,630.0664 " fill="none" id="IGGraph-AppGraph" style="stroke:#A80036;stroke-width:1.0;"/><polygon fill="#A80036" points="448.6,631.61,455.0647,634.805,460.5003,630.0664,454.0356,626.8714,448.6,631.61" style="stroke:#A80036;stroke-width:1.0;"/><polygon fill="#A80036" points="454.52,263.06,460.2037,271.1033,458.8152,265.6195,464.299,264.231,454.52,263.06" style="stroke:#A80036;stroke-width:1.0;"/><line style="stroke:#A80036;stroke-width:1.0;" x1="458.8152" x2="465.69" y1="265.6195" y2="269.71"/><!--MD5=[e9c18af76af90c0008630a107c77fa53]
reverse link ggraph to AppGraph--><path codeLine="40" d="M396.96,475.05 C396.96,507.93 396.96,556.02 396.96,590.88 " fill="none" id="ggraph-backto-AppGraph" style="stroke:#A80036;stroke-width:1.0;stroke-dasharray:7.0,7.0;"/><polygon fill="#A80036" points="396.96,475.05,392.96,484.05,396.96,480.05,400.96,484.05,396.96,475.05" style="stroke:#A80036;stroke-width:1.0;"/><!--MD5=[c51dac47bb741632d1d72bf72ada819b]
reverse link config to AppGraph--><path codeLine="41" d="M245,475.4 C261.71,494.64 282.65,518.33 301.96,539 C317.96,556.14 335.96,574.53 351.95,590.59 " fill="none" id="config-backto-AppGraph" style="stroke:#A80036;stroke-width:1.0;stroke-dasharray:7.0,7.0;"/><polygon fill="#A80036" points="245,475.4,247.8815,484.8179,248.2786,479.175,253.9215,479.5721,245,475.4" style="stroke:#A80036;stroke-width:1.0;"/><!--MD5=[202da512e27ae3482fb9ddfa79342677]
reverse link manager to AppGraph--><path codeLine="42" d="M582.74,461.34 C576,483.27 563.5,516.06 543.96,539 C517.86,569.62 479.59,594.19 448.64,610.8 " fill="none" id="manager-backto-AppGraph" style="stroke:#A80036;stroke-width:1.0;stroke-dasharray:7.0,7.0;"/><polygon fill="#A80036" points="582.74,461.34,576.2725,468.7677,581.2711,466.1194,583.9195,471.118,582.74,461.34" style="stroke:#A80036;stroke-width:1.0;"/><!--MD5=[94ff16ab80871e65dd5e69437f90f10c]
reverse link IConfig to config--><path codeLine="53" d="M232.1,276.23 C227.45,315.01 221.44,365.14 217.41,398.82 " fill="none" id="IConfig-backto-config" style="stroke:#A80036;stroke-width:1.0;"/><polygon fill="none" points="225.16,275.33,234.49,256.3,239.06,276.99,225.16,275.33" style="stroke:#A80036;stroke-width:1.0;"/><!--MD5=[72a735ce0da255ddc18b11f6c06dfd65]
reverse link IGGraph to ggraph--><path codeLine="61" d="M396.96,283.32 C396.96,320.94 396.96,367.1 396.96,398.75 " fill="none" id="IGGraph-backto-ggraph" style="stroke:#A80036;stroke-width:1.0;"/><polygon fill="none" points="389.96,283.17,396.96,263.17,403.96,283.17,389.96,283.17" style="stroke:#A80036;stroke-width:1.0;"/><!--MD5=[7d4968295a0b472d9712fa19c5f95d32]
reverse link IManager to manager--><path codeLine="68" d="M568.34,276.21 C574.1,320.85 581.8,380.53 585.97,412.85 " fill="none" id="IManager-backto-manager" style="stroke:#A80036;stroke-width:1.0;"/><polygon fill="none" points="561.39,277.04,565.77,256.3,575.27,275.24,561.39,277.04" style="stroke:#A80036;stroke-width:1.0;"/><!--MD5=[c90e1fcf0ccdee366a806578d099e8b2]
@startuml
skinparam ClassAttributeIconSize 0

package "model" {
    interface IApp as "Application" {
        + {abstract} Config()
        + {abstract} Start()
    }

    interface IConfig as "Config" {
       + {abstract} Load()
       + {abstract} Save()
    }

    interface IGGraph as "GGraph" {
       + {abstract} SetSimpleAdjMatriz(AdjMatrix)
       + {abstract} SetDirectedAdjMatriz(AdjMatrix)
       + {abstract} Show()
    }

    interface IManager as "Manager" {
       + {abstract} Init()
       + {abstract} Start()
    }
}
note top: интерфейс для\n управления программой


package "app" {

    class AppGraph{
        - Config  сonfig
        - Manager manager
        - GGraph graph
    }
    IApp <|- -AppGraph
    IConfig  <- -*  AppGraph
    IManager <- -*  AppGraph
    IGGraph  <- -*  AppGraph

    ggraph  <.. AppGraph
    config  <.. AppGraph
    manager <.. AppGraph
}

package "internal" {

    package "config" {
        class config{
            + Load()
            + Save()
        }
    }
    IConfig <|- - config

    package "ggraph" {
        class ggraph{
            + SetAdjMatriz()
            + Show()
        }
    }
    IGGraph  <|- - ggraph

    package "manager" {
        class manager{

        }
    }
    IManager <|- - manager

}


package ui {
    package factoryui{}
    package terminal{}
    package desktop{}
}


@enduml

PlantUML version 1.2022.0(Tue Jan 11 19:16:42 MSK 2022)
(GPL source distribution)
Java Runtime: OpenJDK Runtime Environment
JVM: OpenJDK 64-Bit Server VM
Default Encoding: Cp1251
Language: ru
Country: RU
--></g></svg>